<svg width="301" height="258" viewBox="0 0 301 258" fill="none" xmlns="http://www.w3.org/2000/svg">
<path d="M118.158 115.442C118.851 115.443 119.524 115.671 120.075 116.092C120.626 116.513 121.023 117.103 121.205 117.772C121.387 118.441 121.345 119.151 121.084 119.793C120.823 120.435 120.358 120.973 119.761 121.326C119.164 121.678 118.468 121.824 117.78 121.741C117.091 121.659 116.449 121.352 115.952 120.869C115.456 120.386 115.131 119.753 115.029 119.067C114.928 118.382 115.054 117.682 115.389 117.075C115.661 116.579 116.062 116.165 116.549 115.878C117.036 115.591 117.592 115.44 118.158 115.442ZM118.158 114.788C117.229 114.787 116.332 115.125 115.634 115.738C114.936 116.351 114.487 117.198 114.369 118.119C114.251 119.04 114.473 119.973 114.994 120.742C115.515 121.511 116.298 122.064 117.197 122.296C118.096 122.529 119.05 122.426 119.878 122.006C120.706 121.586 121.353 120.878 121.697 120.015C122.041 119.152 122.058 118.194 121.745 117.319C121.433 116.444 120.812 115.714 119.999 115.264C119.435 114.953 118.802 114.789 118.158 114.788Z" fill="black"/>
<path d="M195.989 151.13C199.062 132.192 186.201 114.349 167.264 111.276C148.326 108.203 130.483 121.064 127.41 140.001C124.337 158.939 137.198 176.782 156.135 179.855C175.073 182.928 192.916 170.067 195.989 151.13Z" fill="white"/>
<path d="M161.7 111.221C168.494 111.221 175.136 113.235 180.786 117.01C186.435 120.784 190.838 126.149 193.439 132.427C196.039 138.704 196.719 145.611 195.394 152.275C194.069 158.939 190.797 165.06 185.993 169.864C181.188 174.669 175.067 177.941 168.404 179.266C161.74 180.592 154.832 179.912 148.555 177.312C142.278 174.712 136.913 170.309 133.138 164.659C129.363 159.01 127.348 152.368 127.348 145.574C127.348 136.463 130.967 127.726 137.41 121.283C143.852 114.841 152.589 111.221 161.7 111.221ZM161.7 110.45C154.753 110.45 147.962 112.51 142.186 116.37C136.41 120.229 131.908 125.715 129.25 132.133C126.591 138.551 125.896 145.613 127.251 152.426C128.606 159.239 131.952 165.498 136.864 170.41C141.776 175.322 148.034 178.667 154.848 180.023C161.661 181.378 168.723 180.682 175.141 178.024C181.559 175.365 187.045 170.863 190.904 165.087C194.763 159.311 196.823 152.521 196.823 145.574C196.813 136.262 193.109 127.334 186.524 120.749C179.94 114.165 171.012 110.461 161.7 110.45Z" fill="black"/>
<path d="M162.67 145.606L149.232 145.86L138.85 135.769H144.083L162.67 145.606Z" fill="#D11F40" stroke="black" stroke-width="0.396" stroke-linecap="round" stroke-linejoin="round"/>
<path d="M178.166 141.17H109.729C109.374 141.17 109.033 141.311 108.783 141.562C108.532 141.813 108.391 142.153 108.391 142.508C108.391 142.781 108.475 143.048 108.632 143.271C108.788 143.495 109.009 143.666 109.266 143.76L120.785 147.959C123.655 149.005 126.651 149.668 129.694 149.93L142.359 151.018C151.116 151.771 159.892 152.148 168.686 152.148H177.213C181.429 152.148 185.624 151.556 189.676 150.389C189.986 150.303 190.27 150.138 190.499 149.912C190.729 149.685 190.897 149.404 190.989 149.095C191.08 148.786 191.091 148.459 191.021 148.144C190.951 147.829 190.802 147.537 190.588 147.296L190.567 147.272C187.963 144.538 184.659 142.569 181.016 141.579L180.858 141.537C179.981 141.296 179.075 141.172 178.166 141.17Z" fill="white" stroke="black" stroke-width="0.396" stroke-linecap="round" stroke-linejoin="round"/>
<path d="M121.849 141.17L115.321 137.665L109.928 131.4H106.209L110.543 141.163L121.849 141.17Z" fill="#D11F40" stroke="black" stroke-width="0.396" stroke-linecap="round" stroke-linejoin="round"/>
<path d="M162.345 148.88L145.295 148.627L133.523 158.718H138.757L162.345 148.88Z" fill="#D11F40" stroke="black" stroke-width="0.396" stroke-linecap="round" stroke-linejoin="round"/>
<path d="M180.617 142.396L183.518 142.421C185.036 143.05 186.474 143.858 187.8 144.829H182.895L180.617 142.396Z" fill="#D11F40" stroke="black" stroke-width="0.396" stroke-linecap="round" stroke-linejoin="round"/>
<path d="M177.561 142.382L179.854 144.829H178.341C177.779 144.829 177.222 144.734 176.692 144.548C176.237 144.388 175.843 144.09 175.564 143.697C175.285 143.303 175.135 142.832 175.135 142.35L177.561 142.382Z" fill="#D11F40" stroke="black" stroke-width="0.396" stroke-linecap="round" stroke-linejoin="round"/>
<path d="M190.789 149.125L122.086 148.376" stroke="black" stroke-width="0.396" stroke-linecap="round" stroke-linejoin="round"/>
<path d="M168.295 126.044H148.826V141.17H168.295V126.044Z" fill="white" stroke="black" stroke-width="0.396" stroke-linecap="round" stroke-linejoin="round"/>
<path d="M168.296 126.044H164.5V141.17H168.296V126.044Z" fill="white" stroke="black" stroke-width="0.396" stroke-linecap="round" stroke-linejoin="round"/>
<path d="M159.383 126.044H153.686V133.319H159.383V126.044Z" fill="#D11F40" stroke="black" stroke-width="0.396" stroke-miterlimit="10"/>
<path d="M47.3804 159.234C46.132 197.69 70.1748 234.97 106.705 247.81C118.597 251.785 131.021 253.947 143.557 254.222" stroke="black" stroke-width="0.488" stroke-linecap="round" stroke-linejoin="round"/>
<path d="M79.0999 89.7031C61.9108 97.4164 47.4238 110.098 37.5039 126.115" stroke="black" stroke-width="0.488" stroke-linecap="round" stroke-linejoin="round"/>
<path d="M209.291 136.015C193.643 108.718 165.512 89.2538 134.643 83.5615" stroke="black" stroke-width="0.488" stroke-linecap="round" stroke-linejoin="round"/>
<path d="M211.897 215.452C209.306 218.747 206.502 221.869 203.502 224.797" stroke="black" stroke-width="0.489" stroke-linecap="round" stroke-linejoin="round"/>
<path d="M215.047 153.46C223.973 166.875 225.892 184.465 220.379 201.303" stroke="black" stroke-width="0.489" stroke-linecap="round" stroke-linejoin="round"/>
<path d="M216.464 205.772C217.199 205.772 217.911 206.028 218.478 206.496C219.044 206.965 219.43 207.616 219.568 208.338C219.706 209.06 219.588 209.808 219.235 210.452C218.881 211.097 218.314 211.598 217.631 211.869C216.947 212.141 216.191 212.166 215.491 211.94C214.792 211.713 214.193 211.25 213.798 210.63C213.403 210.01 213.237 209.272 213.327 208.543C213.418 207.813 213.76 207.138 214.295 206.633C214.881 206.079 215.657 205.771 216.464 205.772ZM216.464 205.119C215.586 205.119 214.735 205.421 214.055 205.976C213.375 206.53 212.907 207.302 212.729 208.161C212.552 209.021 212.676 209.915 213.081 210.693C213.487 211.472 214.148 212.087 214.954 212.434C215.76 212.782 216.661 212.841 217.505 212.601C218.349 212.362 219.085 211.838 219.588 211.119C220.091 210.4 220.331 209.53 220.267 208.655C220.204 207.78 219.84 206.953 219.238 206.315C218.882 205.936 218.452 205.635 217.975 205.429C217.498 205.224 216.983 205.118 216.464 205.119Z" fill="black"/>
<path d="M108.444 101.077L122.314 119.07L121.645 123.27C121.52 124.061 121.122 124.784 120.52 125.313C119.919 125.842 119.152 126.145 118.351 126.169C117.333 126.199 116.318 126.024 115.37 125.652C114.421 125.281 113.557 124.722 112.83 124.008L103.536 114.879L97.9062 109.187C97.9062 109.187 102.837 102.309 108.444 101.077Z" fill="white" stroke="black" stroke-width="0.489" stroke-miterlimit="10"/>
<path d="M103.786 103.803C102.948 108.277 102.661 112.835 102.929 117.378L101.906 162.76H53.7796C53.5202 162.76 53.2635 162.706 53.0256 162.603C52.7876 162.5 52.5735 162.348 52.3967 162.158C52.2198 161.969 52.0839 161.744 51.9974 161.5C51.911 161.255 51.8759 160.995 51.8943 160.736L54.6815 121.688C54.8434 116.068 49.8804 106.442 48.8554 100.898L48.652 99.7983C47.5388 93.7769 60.4514 85.7029 60.4514 85.7029L76.5192 81.623L96.2494 86.3907C102.976 88.0164 104.788 91.8099 103.662 97.8983L103.786 103.803Z" fill="#D11F40" stroke="black" stroke-width="0.489" stroke-miterlimit="10"/>
<path d="M98.0316 139.625C98.0316 139.625 89.5347 150.1 80.4062 149.766L98.0316 139.625Z" fill="#D11F40"/>
<path d="M98.0316 139.625C98.0316 139.625 89.5347 150.1 80.4062 149.766" stroke="black" stroke-width="0.489" stroke-linecap="round" stroke-linejoin="round"/>
<path d="M102.344 89.5967L114.376 104.496L122.83 113.744C123.36 114.323 123.658 115.077 123.669 115.862L123.722 119.867C123.733 120.697 123.581 121.521 123.273 122.292C122.965 123.063 122.508 123.765 121.928 124.359L121.66 124.635C120.967 125.345 120.095 125.854 119.136 126.11C118.177 126.365 117.167 126.357 116.212 126.086L115.925 126.005C113.593 125.344 111.48 124.071 109.805 122.318L102.915 115.111L102.871 105.935" fill="#D11F40"/>
<path d="M102.344 89.5967L114.376 104.496L122.83 113.744C123.36 114.323 123.658 115.077 123.669 115.862L123.722 119.867C123.733 120.697 123.581 121.521 123.273 122.292C122.965 123.063 122.508 123.765 121.928 124.359L121.66 124.635C120.967 125.345 120.095 125.854 119.136 126.11C118.177 126.365 117.167 126.357 116.212 126.086L115.925 126.005C113.593 125.344 111.48 124.071 109.805 122.318L102.915 115.111L102.871 105.935" stroke="black" stroke-width="0.489" stroke-linecap="round" stroke-linejoin="round"/>
<path d="M85.9675 83.9415L87.161 73.9058H70.5767L71.4813 82.8429L67.7266 83.9937L67.7346 84.5155C67.7574 85.9584 68.1888 87.3654 68.9786 88.5732C69.7684 89.781 70.8844 90.7403 72.1971 91.3398L74.8305 92.544C76.4181 93.2705 78.1688 93.5663 79.9069 93.4019C81.645 93.2375 83.3092 92.6186 84.7324 91.6074C85.7847 90.8593 86.6299 89.8564 87.1887 88.6925C87.7476 87.5287 88.0019 86.242 87.9278 84.953V84.8193L85.9675 83.9415Z" fill="white" stroke="black" stroke-width="0.489" stroke-miterlimit="10"/>
<path d="M79.4922 89.2202L83.6416 95.6979L87.6519 85.1256L84.7335 83.0342L79.4922 89.2202Z" fill="white" stroke="black" stroke-width="0.489" stroke-linecap="round" stroke-linejoin="round"/>
<path d="M79.2079 89.2206L75.0584 95.6983L68.1699 84.754L71.0883 82.6626L79.2079 89.2206Z" fill="white" stroke="black" stroke-width="0.489" stroke-linecap="round" stroke-linejoin="round"/>
<path d="M70.9443 77.2723L70.5723 73.9097H87.1566L86.3832 80.9066C83.7328 81.8498 80.8666 82.0086 78.1283 81.364C75.3899 80.7194 72.8956 79.2988 70.9443 77.2723Z" fill="black" stroke="black" stroke-width="0.489" stroke-miterlimit="10"/>
<path d="M64.9104 64.3902C66.2485 71.8916 77.827 83.9973 85.3284 82.6632C92.8298 81.3291 93.4078 67.0611 92.0737 59.5597C91.4331 55.9576 89.3879 52.7575 86.3879 50.6634C83.3879 48.5693 79.6789 47.7528 76.0768 48.3933C72.4747 49.0339 69.2747 51.0791 67.1805 54.0791C65.0864 57.0791 64.2698 60.7881 64.9104 64.3902Z" fill="white" stroke="black" stroke-width="0.465" stroke-miterlimit="10"/>
<path d="M70.3257 73.4531L69.9457 73.5213C68.9879 73.6914 68.0018 73.4742 67.2041 72.9174C66.4064 72.3606 65.8625 71.5098 65.6919 70.5521C65.6785 70.4812 65.6692 70.4089 65.6598 70.338C65.6044 69.7642 65.7003 69.1859 65.9378 68.6606C66.1753 68.1354 66.5462 67.6815 67.0137 67.3441C67.4811 67.0067 68.0287 66.7977 68.6021 66.7377C69.1754 66.6777 69.7544 66.7688 70.2816 67.0021L71.4457 67.5079" fill="white"/>
<path d="M70.3257 73.4531L69.9457 73.5213C68.9879 73.6914 68.0018 73.4742 67.2041 72.9174C66.4064 72.3606 65.8625 71.5098 65.6919 70.5521C65.6785 70.4812 65.6692 70.4089 65.6598 70.338C65.6044 69.7642 65.7003 69.1859 65.9378 68.6606C66.1753 68.1354 66.5462 67.6815 67.0137 67.3441C67.4811 67.0067 68.0287 66.7977 68.6021 66.7377C69.1754 66.6777 69.7544 66.7688 70.2816 67.0021L71.4457 67.5079" stroke="black" stroke-width="0.465" stroke-linecap="round" stroke-linejoin="round"/>
<path d="M67.877 69.1216C68.2808 69.1126 68.6779 69.2257 69.0164 69.4461C69.3549 69.6664 69.6191 69.9838 69.7744 70.3566L69.9925 70.8798" stroke="black" stroke-width="0.465" stroke-linecap="round" stroke-linejoin="round"/>
<path d="M83.7593 63.6992L83.3941 65.9432C83.3273 66.3533 83.352 66.7731 83.4662 67.1726C83.5805 67.572 83.7816 67.9413 84.0551 68.2541L85.3544 69.7407C85.5671 69.984 85.6764 70.3008 85.6589 70.6235C85.6414 70.9462 85.4985 71.2493 85.2607 71.4682L84.2397 72.4049" stroke="black" stroke-width="0.465" stroke-linecap="round" stroke-linejoin="round"/>
<path d="M83.7475 77.3724C83.1596 77.3734 82.5824 77.2163 82.0762 76.9175" stroke="black" stroke-width="0.465" stroke-linecap="round" stroke-linejoin="round"/>
<path d="M86.751 74.5391L86.0218 75.0743C85.4497 75.5027 84.7621 75.7492 84.0482 75.7819C83.3342 75.8146 82.627 75.6319 82.0182 75.2576L81.3184 74.8562" stroke="black" stroke-width="0.465" stroke-linecap="round" stroke-linejoin="round"/>
<path d="M80.7637 75.3409C80.9665 74.9221 81.2546 74.5502 81.6094 74.249" stroke="black" stroke-width="0.465" stroke-linecap="round" stroke-linejoin="round"/>
<path d="M85.2773 62.9598L85.7216 62.4647C86.2177 61.9081 86.892 61.5415 87.6288 61.4278C88.3656 61.314 89.1191 61.4601 89.7599 61.8411L89.8844 61.9147" stroke="black" stroke-width="0.465" stroke-linecap="round" stroke-linejoin="round"/>
<path d="M74.0605 64.9545L74.5115 64.5344C75.1887 63.9022 76.04 63.4878 76.9554 63.3447C77.8707 63.2015 78.8079 63.3363 79.6458 63.7315V63.7315" stroke="black" stroke-width="0.465" stroke-linecap="round" stroke-linejoin="round"/>
<path d="M78.9494 66.9588C79.4267 66.8739 79.7185 66.2701 79.6011 65.6102C79.4838 64.9503 79.0017 64.4841 78.5244 64.569C78.0471 64.6538 77.7553 65.2577 77.8727 65.9176C77.99 66.5775 78.4721 67.0436 78.9494 66.9588Z" fill="#231F20"/>
<path d="M88.7951 65.2073C89.2724 65.1224 89.5642 64.5186 89.4468 63.8587C89.3294 63.1988 88.8474 62.7326 88.3701 62.8175C87.8928 62.9024 87.601 63.5061 87.7184 64.1661C87.8357 64.826 88.3178 65.2922 88.7951 65.2073Z" fill="#231F20"/>
<path d="M86.7776 67.2204C86.6123 67.2492 86.4636 67.3382 86.36 67.4701C86.2564 67.602 86.2052 67.7676 86.2163 67.935C86.2275 68.1024 86.3001 68.2598 86.4203 68.3768C86.5404 68.4939 86.6996 68.5624 86.8672 68.5692C86.9169 68.5719 86.9668 68.5688 87.0157 68.5598L89.7535 68.0647C89.9133 68.0316 90.0557 67.9419 90.1546 67.8121C90.2535 67.6824 90.3023 67.5213 90.2918 67.3584C90.2814 67.1956 90.2125 67.042 90.0979 66.9259C89.9833 66.8098 89.8305 66.739 89.6678 66.7266C89.6155 66.7238 89.563 66.7269 89.5113 66.736L86.7776 67.2204Z" fill="#F4DFE7"/>
<path d="M75.9571 69.1467C75.7932 69.1769 75.646 69.2662 75.5437 69.3978C75.4413 69.5294 75.3908 69.694 75.4019 69.8604C75.413 70.0267 75.4848 70.1832 75.6037 70.3C75.7226 70.4169 75.8803 70.486 76.0468 70.4942C76.096 70.4975 76.1455 70.4944 76.194 70.4848L78.933 69.991C79.0912 69.9561 79.2315 69.8657 79.3288 69.7363C79.4261 69.6069 79.4739 69.4469 79.4636 69.2853C79.4533 69.1237 79.3855 68.9711 79.2725 68.8552C79.1594 68.7392 79.0087 68.6675 78.8474 68.6529C78.795 68.6498 78.7424 68.6535 78.6909 68.6637L75.9571 69.1467Z" fill="#F4DFE7"/>
<path d="M72.6293 44.2654C70.0296 44.7266 67.6144 45.9165 65.6645 47.6967C63.7147 49.4769 62.3104 51.7741 61.6152 54.3212C60.9199 56.8683 60.9621 59.5604 61.737 62.0844C62.5119 64.6083 63.9876 66.8604 65.9923 68.5785L66.0084 68.5531C66.0749 68.3389 66.192 68.1439 66.3496 67.9844C65.8828 66.7999 65.5284 65.5742 65.2912 64.3234C64.8092 61.6137 65.1487 58.8217 66.2662 56.3066C67.3837 53.7914 69.228 51.668 71.562 50.2095C73.8959 48.7509 76.6128 48.0239 79.3633 48.1218C82.1138 48.2198 84.7721 49.1382 86.9964 50.7591C85.5358 48.3541 83.3822 46.447 80.8181 45.288C78.2541 44.1291 75.3996 43.7727 72.6293 44.2654Z" fill="black"/>
<path d="M83.2009 44.6915C82.2111 44.8939 81.2745 45.3009 80.4512 45.8864C79.6279 46.4719 78.936 47.223 78.4199 48.0916C78.8332 47.942 79.2585 47.8279 79.6911 47.7503C85.2255 46.7668 90.7973 52.0496 92.1274 59.551C92.3334 60.77 92.4563 62.0017 92.4953 63.2374C93.8004 60.5484 94.194 57.5074 93.6166 54.5746C92.5047 48.2963 87.8414 43.8672 83.2009 44.6915Z" fill="black"/>
<path d="M74.9727 42.4705C67.3884 43.8193 59.986 52.8555 61.3362 60.4385C61.4368 60.9991 61.5708 61.5531 61.7376 62.0977C62.2835 62.3198 64.8901 67.3337 65.974 67.6856L68.8067 66.6807L71.7666 67.525C71.9914 67.0647 70.9785 63.4813 71.2635 63.4719C74.3147 62.2303 77.1083 60.4321 79.5021 58.1691C83.2167 54.1079 85.7524 49.6628 85.2921 45.4425C82.5169 43.7993 78.3955 41.8617 74.9727 42.4705Z" fill="black"/>
<path d="M85.3805 46.4958C84.5923 46.3709 83.7931 46.3292 82.9961 46.3714C83.7232 50.1958 83.2898 54.1503 81.7516 57.7264C81.6446 57.986 81.5322 58.2429 81.4158 58.4945C81.3704 58.5922 81.3626 58.7032 81.3938 58.8063C81.425 58.9094 81.493 58.9975 81.5849 59.0537C81.6768 59.1099 81.7862 59.1303 81.8922 59.1111C81.9982 59.0919 82.0935 59.0343 82.1598 58.9494L82.1852 58.916C84.9251 55.4182 86.3526 51.0708 86.2195 46.6296C85.9412 46.5814 85.6615 46.5359 85.3805 46.4958Z" fill="black"/>
<path d="M92.132 59.5517C91.1646 54.1124 87.9718 49.8412 84.1797 48.2783C84.969 50.7537 86.0946 53.1089 87.5249 55.2779C88.8164 57.3303 90.4277 59.1629 92.2979 60.7065C92.2538 60.3064 92.1976 59.9197 92.132 59.5517Z" fill="black"/>
<path d="M57.6515 114.235L49.8906 135.585L44.573 136.43L41.3535 132.75L43.3714 117.485L45.1631 109.681C45.1631 109.681 53.6078 110.16 57.6515 114.235Z" fill="white" stroke="black" stroke-width="0.489" stroke-miterlimit="10"/>
<path d="M44.9902 126.636L45.1414 126.389C46.8135 123.642 49.3052 121.489 52.2655 120.234L68.4564 113.364L70.2722 122.234L49.8863 135.583" fill="white"/>
<path d="M44.9902 126.636L45.1414 126.389C46.8135 123.642 49.3052 121.489 52.2655 120.234L68.4564 113.364L70.2722 122.234L49.8863 135.583" stroke="black" stroke-width="0.489" stroke-miterlimit="10"/>
<path d="M45.1454 126.389C46.8176 123.643 49.3092 121.49 52.2695 120.234L57.2632 118.115C57.3325 119.538 57.5664 120.947 57.9604 122.316C58.6163 124.477 59.6098 126.521 60.9042 128.371L49.889 135.584L44.9902 126.634L45.1454 126.389Z" fill="white" stroke="black" stroke-width="0.489" stroke-miterlimit="10"/>
<path d="M58.4941 114.436L56.487 118.374L55.0886 118.993C54.731 119.151 54.4196 119.398 54.1837 119.71C53.9477 120.022 53.795 120.389 53.7398 120.776C53.5269 122.265 53.6635 123.782 54.139 125.209C54.6144 126.636 55.4155 127.932 56.4789 128.995L57.8933 130.409C57.9942 130.51 58.0699 130.634 58.1144 130.769C58.1589 130.905 58.1708 131.049 58.1494 131.19C58.1279 131.331 58.0735 131.466 57.9907 131.582C57.9079 131.698 57.7989 131.793 57.6725 131.86L49.015 136.409C48.3029 136.919 47.4857 137.264 46.6234 137.417C45.761 137.571 44.8752 137.53 44.0306 137.298C43.0864 137.038 42.2516 136.479 41.6507 135.706C41.0497 134.933 40.7149 133.986 40.6961 133.006L40.6426 130.229L42.8638 116.122C43.5725 111.623 44.6333 107.187 46.0364 102.854L47.4374 98.5305C47.9152 96.8526 48.6428 95.2563 49.5958 93.795C51.28 91.2119 53.6216 89.1239 56.3799 87.7454L60.4544 85.7075" fill="#D11F40"/>
<path d="M58.4941 114.436L56.487 118.374L55.0886 118.993C54.731 119.151 54.4196 119.398 54.1837 119.71C53.9477 120.022 53.795 120.389 53.7398 120.776V120.776C53.5269 122.265 53.6635 123.782 54.139 125.209C54.6144 126.636 55.4155 127.932 56.4789 128.995L57.8933 130.409C57.9942 130.51 58.0699 130.634 58.1144 130.769C58.1589 130.905 58.1708 131.049 58.1494 131.19C58.1279 131.331 58.0735 131.466 57.9907 131.582C57.9079 131.698 57.7989 131.793 57.6725 131.86L49.015 136.409C48.3029 136.919 47.4857 137.264 46.6234 137.417C45.761 137.571 44.8752 137.53 44.0306 137.298V137.298C43.0864 137.038 42.2516 136.479 41.6507 135.706C41.0497 134.933 40.7149 133.986 40.6961 133.006L40.6426 130.229L42.8638 116.122C43.5725 111.623 44.6333 107.187 46.0364 102.854L47.4374 98.5305C47.9152 96.8526 48.6428 95.2563 49.5958 93.795V93.795C51.28 91.2119 53.6216 89.1239 56.3799 87.7454L60.4544 85.7075" stroke="black" stroke-width="0.489" stroke-linecap="round" stroke-linejoin="round"/>
<path d="M56.8163 117.611L56.4537 117.343C56.1779 117.139 55.8605 116.999 55.5242 116.932C55.1878 116.865 54.8409 116.873 54.5081 116.956C54.0728 117.065 53.6782 117.297 53.3721 117.625C52.6811 118.365 52.14 119.232 51.7784 120.177L51.3516 121.288" stroke="black" stroke-width="0.489" stroke-linecap="round" stroke-linejoin="round"/>
<path d="M42.8594 126.985L43.9807 123.835C44.2938 122.954 44.7895 122.15 45.4351 121.474C46.0808 120.799 46.8619 120.267 47.7274 119.914L53.3647 117.622" stroke="black" stroke-width="0.489" stroke-linecap="round" stroke-linejoin="round"/>
<path d="M69.6795 122.41L70.2964 122.177C70.9452 121.931 71.5284 121.539 72.0004 121.03C72.4723 120.522 72.8201 119.911 73.0167 119.245C73.2254 118.54 73.2576 117.793 73.1104 117.072L72.6032 114.589L75.6996 113.385C76.0125 113.262 76.265 113.022 76.4034 112.715L76.5372 112.422C76.6163 112.251 76.6567 112.064 76.6555 111.875C76.6543 111.686 76.6116 111.5 76.5304 111.33C76.4492 111.159 76.3314 111.009 76.1856 110.889C76.0397 110.769 75.8692 110.683 75.6862 110.636L75.4922 110.588C75.2294 110.521 74.9521 110.539 74.7 110.639L70.4824 112.311L72.9699 109.327C73.5024 108.689 74.1223 108.129 74.8111 107.663L75.9257 106.909C76.0954 106.795 76.2343 106.64 76.3305 106.46C76.4266 106.279 76.4769 106.077 76.477 105.872V105.166C76.477 104.994 76.4418 104.824 76.3734 104.667C76.305 104.509 76.2049 104.368 76.0795 104.25C75.954 104.133 75.8057 104.043 75.6439 103.986C75.4821 103.928 75.3102 103.904 75.1389 103.916L74.1313 103.979L74.5181 102.851C74.5729 102.692 74.5959 102.524 74.5857 102.356C74.5756 102.188 74.5324 102.024 74.4587 101.872C74.385 101.721 74.2823 101.586 74.1563 101.474C74.0303 101.363 73.8836 101.277 73.7246 101.223C73.1306 101.018 72.4908 100.986 71.8793 101.13L70.0381 101.566L70.1104 99.3747L71.775 97.9469C72.0224 97.7324 72.2073 97.455 72.3102 97.144L72.444 96.7426C72.57 96.3643 72.5683 95.9551 72.4389 95.5779C72.3096 95.2007 72.0598 94.8765 71.7281 94.6552L71.6077 94.5763C71.4051 94.4407 71.1645 94.3733 70.921 94.3839C70.6774 94.3945 70.4436 94.4825 70.2536 94.6351L68.3508 96.1566L67.3071 97.7703C66.9387 98.3404 66.738 99.0025 66.7277 99.6811L66.6701 103.829L66.4333 108.745C66.3969 109.498 66.1534 110.226 65.7294 110.849C65.3444 111.416 65.1564 112.095 65.1942 112.78L65.502 118.374" fill="white"/>
<path d="M69.6795 122.41L70.2964 122.177C70.9452 121.931 71.5284 121.539 72.0004 121.03C72.4723 120.522 72.8201 119.911 73.0167 119.245C73.2254 118.54 73.2576 117.793 73.1104 117.072L72.6032 114.589L75.6996 113.385C76.0125 113.262 76.265 113.022 76.4034 112.715L76.5372 112.422C76.6163 112.251 76.6567 112.064 76.6555 111.875C76.6543 111.686 76.6116 111.5 76.5304 111.33C76.4492 111.159 76.3314 111.009 76.1856 110.889C76.0397 110.769 75.8692 110.683 75.6862 110.636L75.4922 110.588C75.2294 110.521 74.9521 110.539 74.7 110.639L70.4824 112.311L72.9699 109.327C73.5024 108.689 74.1223 108.129 74.8111 107.663L75.9257 106.909C76.0954 106.795 76.2343 106.64 76.3305 106.46C76.4266 106.279 76.4769 106.077 76.477 105.872V105.166C76.477 104.994 76.4418 104.824 76.3734 104.667C76.305 104.509 76.2049 104.368 76.0795 104.25C75.954 104.133 75.8057 104.043 75.6439 103.986C75.4821 103.928 75.3102 103.904 75.1389 103.916L74.1313 103.979L74.5181 102.851C74.5729 102.692 74.5959 102.524 74.5857 102.356C74.5756 102.188 74.5324 102.024 74.4587 101.872C74.385 101.721 74.2823 101.586 74.1563 101.474C74.0303 101.363 73.8836 101.277 73.7246 101.223V101.223C73.1306 101.018 72.4908 100.986 71.8793 101.13L70.0381 101.566L70.1104 99.3747L71.775 97.9469C72.0224 97.7324 72.2073 97.455 72.3102 97.144L72.444 96.7426C72.57 96.3643 72.5683 95.9551 72.4389 95.5779C72.3096 95.2007 72.0598 94.8765 71.7281 94.6552L71.6077 94.5763C71.4051 94.4407 71.1645 94.3733 70.921 94.3839C70.6774 94.3945 70.4436 94.4825 70.2536 94.6351L68.3508 96.1566L67.3071 97.7703C66.9387 98.3404 66.738 99.0025 66.7277 99.6811L66.6701 103.829L66.4333 108.745C66.3969 109.498 66.1534 110.226 65.7294 110.849C65.3444 111.416 65.1564 112.095 65.1942 112.78L65.502 118.374" stroke="black" stroke-width="0.489" stroke-linecap="round" stroke-linejoin="round"/>
<path d="M67.8145 109.464L71.5865 105.03L74.1343 103.99" fill="white"/>
<path d="M67.8145 109.464L71.5865 105.03L74.1343 103.99" stroke="black" stroke-width="0.489" stroke-linecap="round" stroke-linejoin="round"/>
<path d="M66.6641 104.887L69.1676 101.808L70.2368 101.523" fill="white"/>
<path d="M66.6641 104.887L69.1676 101.808L70.2368 101.523" stroke="black" stroke-width="0.489" stroke-linecap="round" stroke-linejoin="round"/>
<path d="M112.006 118.156C110.584 115.272 110.101 112.016 110.626 108.844L113.499 91.4888L121.963 94.7082L122.286 117.054C122.296 117.679 122.157 118.297 121.882 118.857C121.607 119.418 121.203 119.906 120.703 120.281C120.017 120.795 119.195 121.097 118.339 121.149C117.482 121.201 116.63 121 115.886 120.572L112.388 118.565C112.223 118.47 112.09 118.327 112.006 118.156Z" fill="white" stroke="black" stroke-width="0.489" stroke-miterlimit="10"/>
<path d="M113.474 112.24C115.422 114.114 117.858 116.79 120.808 116.602C121.314 116.56 121.81 116.441 122.28 116.249L122.292 117.052C122.301 117.677 122.163 118.295 121.887 118.855C121.612 119.416 121.208 119.904 120.708 120.278C120.021 120.793 119.199 121.095 118.343 121.147C117.487 121.198 116.634 120.998 115.891 120.57L112.393 118.563C112.229 118.469 112.096 118.33 112.012 118.161C110.635 115.366 110.142 112.219 110.596 109.137C111.495 110.226 112.456 111.262 113.474 112.24Z" fill="white" stroke="black" stroke-width="0.489" stroke-miterlimit="10"/>
<path d="M113.355 92.3024L114.524 78.9737C114.549 78.69 114.581 78.405 114.623 78.1227L115.656 70.8849C115.687 70.6656 115.762 70.4549 115.877 70.2656C115.992 70.0762 116.144 69.9123 116.325 69.7837L120.961 66.5V70.9491L119.333 72.0343L119.224 76.3764L122.034 75.8948C122.682 75.7837 123.347 75.8574 123.955 76.1075C124.219 76.2168 124.442 76.4083 124.59 76.6538C124.738 76.8993 124.803 77.1857 124.776 77.471C124.738 77.8727 124.606 78.2598 124.392 78.6019C124.179 78.944 123.888 79.2317 123.544 79.442L122.699 79.9585L119.551 81.3689L120.363 82.5143C121.04 83.4705 121.456 84.5873 121.567 85.7538L121.616 86.2529L126.173 85.6026C125.821 88.2142 124.66 90.65 122.853 92.5687L122.157 93.3087L121.941 96.1307" fill="white"/>
<path d="M113.355 92.3024L114.524 78.9737C114.549 78.69 114.581 78.405 114.623 78.1227L115.656 70.8849C115.687 70.6656 115.762 70.4549 115.877 70.2656C115.992 70.0762 116.144 69.9123 116.325 69.7837L120.961 66.5V70.9491L119.333 72.0343L119.224 76.3764L122.034 75.8948C122.682 75.7837 123.347 75.8574 123.955 76.1075V76.1075C124.219 76.2168 124.442 76.4083 124.59 76.6538C124.738 76.8993 124.803 77.1857 124.776 77.471V77.471C124.738 77.8727 124.606 78.2598 124.392 78.6019C124.179 78.944 123.888 79.2317 123.544 79.442L122.699 79.9585L119.551 81.3689L120.363 82.5143C121.04 83.4705 121.456 84.5873 121.567 85.7538L121.616 86.2529L126.173 85.6026C125.821 88.2142 124.66 90.65 122.853 92.5687L122.157 93.3087L121.941 96.1307" stroke="black" stroke-width="0.444" stroke-miterlimit="10"/>
<path d="M122.673 108.278L216.534 108.278C218.389 108.278 219.893 106.774 219.893 104.919V43.2786C219.893 41.4237 218.389 39.92 216.534 39.92L122.673 39.92C120.818 39.92 119.315 41.4237 119.315 43.2786L119.315 104.919C119.315 106.774 120.818 108.278 122.673 108.278Z" fill="white" stroke="black" stroke-width="0.489" stroke-linecap="round" stroke-linejoin="round"/>
<path d="M214.383 102.771V45.4272L124.819 45.4272V102.771H214.383Z" fill="white" stroke="black" stroke-width="0.489" stroke-linecap="round" stroke-linejoin="round"/>
<path d="M137.385 58.859L159.766 54.5771L182.148 58.859L159.766 72.248L137.385 58.859Z" fill="white" stroke="black" stroke-width="0.488" stroke-linecap="round" stroke-linejoin="round"/>
<path d="M146.305 57.1498L153.656 55.7822L175.163 60.3598L168.36 61.9562L146.305 57.1498Z" fill="#D11F40" stroke="black" stroke-width="0.488" stroke-linecap="round" stroke-linejoin="round"/>
<path d="M159.772 94.292L137.385 88.9235V58.8579L159.772 64.2263V94.292Z" fill="white" stroke="black" stroke-width="0.488" stroke-linecap="round" stroke-linejoin="round"/>
<path d="M182.145 58.8584L159.77 64.2268V94.2924L182.145 88.924V58.8584Z" fill="white" stroke="black" stroke-width="0.488" stroke-linecap="round" stroke-linejoin="round"/>
<path d="M175.639 60.4238L168.209 62.2423V72.9832L175.639 71.166V60.4238Z" fill="#D11F40" stroke="black" stroke-width="0.488" stroke-linecap="round" stroke-linejoin="round"/>
<path d="M113.355 92.3016L114.524 78.9729C114.549 78.6892 114.581 78.4042 114.623 78.1218L115.656 70.8841C115.687 70.6647 115.762 70.454 115.877 70.2647C115.992 70.0754 116.144 69.9114 116.325 69.7828L119.285 67.686L119.333 72.0335L119.224 76.3756L122.034 75.8939C122.682 75.7829 123.347 75.8566 123.955 76.1067C124.219 76.216 124.442 76.4075 124.59 76.653C124.738 76.8984 124.803 77.1849 124.776 77.4702C124.738 77.8718 124.606 78.259 124.392 78.6011C124.179 78.9432 123.888 79.2308 123.544 79.4412L122.699 79.9577L119.551 81.3681L120.363 82.5134C121.04 83.4696 121.456 84.5865 121.567 85.753C121.599 86.0802 121.544 86.4099 121.409 86.7097L118.599 92.9493" fill="white"/>
<path d="M113.355 92.3016L114.524 78.9729C114.549 78.6892 114.581 78.4042 114.623 78.1218L115.656 70.8841C115.687 70.6647 115.762 70.454 115.877 70.2647C115.992 70.0754 116.144 69.9114 116.325 69.7828L119.285 67.686L119.333 72.0335L119.224 76.3756L122.034 75.8939C122.682 75.7829 123.347 75.8566 123.955 76.1067V76.1067C124.219 76.216 124.442 76.4075 124.59 76.653C124.738 76.8984 124.803 77.1849 124.776 77.4702V77.4702C124.738 77.8718 124.606 78.259 124.392 78.6011C124.179 78.9432 123.888 79.2308 123.544 79.4412L122.699 79.9577L119.551 81.3681L120.363 82.5134C121.04 83.4696 121.456 84.5865 121.567 85.753C121.599 86.0802 121.544 86.4099 121.409 86.7097L118.599 92.9493" stroke="black" stroke-width="0.444" stroke-miterlimit="10"/>
<path d="M119.23 76.377L116.58 77.0179L115.723 78.3012C115.517 78.6102 115.403 78.9711 115.394 79.3422L115.291 83.2815" fill="white"/>
<path d="M119.23 76.377L116.58 77.0179L115.723 78.3012C115.517 78.6102 115.403 78.9711 115.394 79.3422L115.291 83.2815" stroke="black" stroke-width="0.489" stroke-linecap="round" stroke-linejoin="round"/>
<path d="M46.1212 18.4917C46.8306 18.4924 47.5191 18.7319 48.0759 19.1716C48.6327 19.6113 49.0253 20.2255 49.1904 20.9155C49.3556 21.6054 49.2837 22.3309 48.9864 22.975C48.6891 23.6191 48.1836 24.1444 47.5514 24.4663C46.9192 24.7882 46.1971 24.8879 45.5013 24.7494C44.8055 24.6109 44.1766 24.2423 43.7158 23.7028C43.255 23.1634 42.9892 22.4846 42.9612 21.7757C42.9332 21.0668 43.1446 20.3691 43.5614 19.795C43.8533 19.3894 44.2379 19.0595 44.6832 18.8328C45.1284 18.6061 45.6215 18.4892 46.1212 18.4917ZM46.1212 17.8374C45.5189 17.8382 44.9253 17.9811 44.3886 18.2545C43.852 18.528 43.3875 18.9242 43.0328 19.411C42.6199 19.9795 42.372 20.651 42.3166 21.3514C42.2611 22.0518 42.4003 22.7539 42.7186 23.3803C43.037 24.0066 43.5222 24.5329 44.1207 24.9009C44.7193 25.2689 45.4078 25.4644 46.1105 25.4659C46.6198 25.4794 47.1266 25.3907 47.6011 25.2051C48.0756 25.0196 48.5081 24.7408 48.8731 24.3853C49.2381 24.0299 49.5282 23.6049 49.7262 23.1355C49.9243 22.6661 50.0264 22.1618 50.0264 21.6523C50.0264 21.1428 49.9243 20.6385 49.7262 20.1691C49.5282 19.6997 49.2381 19.2747 48.8731 18.9193C48.5081 18.5638 48.0756 18.2851 47.6011 18.0995C47.1266 17.9139 46.6198 17.8252 46.1105 17.8387L46.1212 17.8374Z" fill="black"/>
<path d="M33.5957 91.1943C36.0462 92.9165 38.6817 94.3591 41.453 95.495" stroke="black" stroke-width="0.488" stroke-linecap="round" stroke-linejoin="round"/>
<path d="M38.3651 24.353C16.2745 35.6358 10.3387 66.7505 26.907 85.2497" stroke="black" stroke-width="0.488" stroke-linecap="round" stroke-linejoin="round"/>
<path d="M74.5762 23.6085C68.602 20.849 62.0276 19.6431 55.4629 20.1028" stroke="black" stroke-width="0.488" stroke-linecap="round" stroke-linejoin="round"/>
<path d="M38.4685 154.31L31.1451 155.137C27.9357 155.499 24.9127 156.83 22.4782 158.953C20.4562 160.715 18.9128 162.96 17.9916 165.479L6.39569 197.177C5.8614 198.638 5.7551 200.221 6.08926 201.741C6.48832 203.561 7.49745 205.191 8.94937 206.359C10.4013 207.527 12.2088 208.164 14.0723 208.164H98.7897L90.5712 182.63L84.4159 164.756C83.635 162.489 82.2708 160.467 80.4605 158.894C77.9588 156.72 74.7517 155.531 71.4377 155.549L66.1991 155.577" fill="#D11F40"/>
<path d="M38.4685 154.31L31.1451 155.137C27.9357 155.499 24.9127 156.83 22.4782 158.953V158.953C20.4562 160.715 18.9128 162.96 17.9916 165.479L6.39569 197.177C5.8614 198.638 5.7551 200.221 6.08926 201.741V201.741C6.48833 203.561 7.49745 205.191 8.94937 206.359C10.4013 207.527 12.2088 208.164 14.0723 208.164H98.7897L90.5712 182.63L84.4159 164.756C83.635 162.489 82.2708 160.467 80.4605 158.894V158.894C77.9588 156.72 74.7517 155.531 71.4377 155.549L66.1991 155.577" stroke="black" stroke-width="0.576" stroke-miterlimit="10"/>
<path d="M31.4492 191.453L33.3507 192.054C33.9566 192.246 34.6091 192.23 35.2053 192.01L35.3738 191.947C35.6673 191.838 35.9858 191.816 36.2916 191.883C36.5974 191.949 36.8775 192.103 37.0987 192.324L38.1999 193.424" fill="#D11F40"/>
<path d="M31.4492 191.453L33.3507 192.054C33.9566 192.246 34.6091 192.23 35.2053 192.01L35.3738 191.947C35.6673 191.838 35.9858 191.816 36.2916 191.883C36.5974 191.949 36.8775 192.103 37.0987 192.324L38.1999 193.424" stroke="black" stroke-width="0.576" stroke-miterlimit="10"/>
<path d="M43.9069 144.164L42.918 152.823L38.4648 154.308L42.7642 156.86C44.5223 157.903 46.3409 158.842 48.2102 159.67L53.1143 161.844C54.3845 162.407 55.7889 162.596 57.1625 162.388C58.5361 162.18 59.8218 161.584 60.8686 160.671L61.8976 159.774C63.1339 158.696 64.3168 157.56 65.4462 156.367L66.1995 155.573L58.452 154.621L60.2196 148.097" fill="white"/>
<path d="M43.9069 144.164L42.918 152.823L38.4648 154.308L42.7642 156.86C44.5223 157.903 46.3409 158.842 48.2102 159.67L53.1143 161.844C54.3845 162.407 55.7889 162.596 57.1625 162.388C58.5361 162.18 59.8218 161.584 60.8686 160.671L61.8976 159.774C63.1339 158.696 64.3168 157.56 65.4462 156.367L66.1995 155.573L58.452 154.621L60.2196 148.097" stroke="black" stroke-width="0.576" stroke-linecap="round" stroke-linejoin="round"/>
<path d="M45.5605 144.563C46.2656 147.056 47.5893 149.33 49.4086 151.174C51.228 153.019 53.4839 154.373 55.9669 155.113C58.8045 155.951 61.8103 156.043 64.6939 155.38L58.4544 154.615L60.222 148.09L45.5605 144.563Z" fill="black" stroke="black" stroke-width="0.576" stroke-linecap="round" stroke-linejoin="round"/>
<path d="M57.8477 156.722L58.6412 153.915" stroke="black" stroke-width="0.561" stroke-linecap="round" stroke-linejoin="round"/>
<path d="M44.2431 119.082L42.6949 120.054C41.6406 120.716 40.3896 120.992 39.1547 120.835C37.9197 120.679 36.7772 120.099 35.9215 119.195L32.5977 115.686C31.8561 114.903 31.2976 113.965 30.9624 112.94C30.6273 111.915 30.5238 110.829 30.6595 109.759C30.7952 108.689 31.1666 107.662 31.7471 106.753C32.3275 105.844 33.1025 105.076 34.0161 104.503C34.9295 103.929 35.9587 103.566 37.0295 103.439C38.1002 103.312 39.1859 103.424 40.2081 103.767C41.2304 104.11 42.1637 104.676 42.9408 105.424C43.718 106.171 44.3195 107.082 44.7021 108.09L46.4162 112.609C46.858 113.773 46.8829 115.054 46.4868 116.234C46.0906 117.414 45.2977 118.421 44.2431 119.082Z" fill="black"/>
<path d="M44.7058 108.086C44.5194 107.6 44.2821 107.136 43.998 106.701C41.5912 107.362 39.3505 108.523 37.4214 110.107C35.4924 111.691 33.9181 113.663 32.8008 115.895L35.9239 119.19C36.7796 120.095 37.9221 120.674 39.1571 120.831C40.392 120.987 41.643 120.711 42.6973 120.049L44.2468 119.082C45.301 118.42 46.0934 117.413 46.4893 116.233C46.8853 115.053 46.8602 113.772 46.4186 112.608L44.7058 108.086Z" fill="white" stroke="black" stroke-width="0.576" stroke-linecap="round" stroke-linejoin="round"/>
<path d="M32.7749 127.181L33.1883 120.718C33.3935 117.5 34.696 114.449 36.8786 112.075C39.0612 109.7 41.9918 108.146 45.1817 107.672L50.8498 106.827C54.0397 106.352 57.296 106.985 60.0759 108.62C62.8557 110.255 64.9909 112.794 66.1255 115.813L68.4003 121.875L73.485 133.972C73.9581 135.096 74.1678 136.314 74.0982 137.532C74.0286 138.75 73.6815 139.935 73.0835 140.999C72.4855 142.062 71.6523 142.974 70.6477 143.666C69.643 144.358 68.4935 144.811 67.287 144.991L43.9025 144.164L43.4783 148.537L40.5653 148.971C39.3588 149.15 38.1272 149.052 36.9645 148.683C35.8019 148.314 34.739 147.684 33.8571 146.841C32.9752 145.998 32.2975 144.965 31.876 143.821C31.4544 142.676 31.3001 141.45 31.4247 140.237L32.7749 127.181Z" fill="black"/>
<path d="M35.0859 129.98C36.4401 139.079 50.007 154.08 59.1047 152.728C68.2024 151.375 69.384 134.174 68.0298 125.076C67.3566 120.727 64.9897 116.822 61.4463 114.213C57.9028 111.604 53.4709 110.503 49.1185 111.152C44.7662 111.8 40.8473 114.144 38.218 117.673C35.5887 121.201 34.4627 125.627 35.0859 129.983V129.98Z" fill="white" stroke="black" stroke-width="0.576" stroke-miterlimit="10"/>
<path d="M41.3046 141.107L40.8443 141.177C39.6826 141.35 38.4998 141.054 37.556 140.355C36.6123 139.656 35.9848 138.61 35.8117 137.449C35.7997 137.362 35.7889 137.276 35.7809 137.19C35.733 136.496 35.868 135.801 36.1724 135.175C36.4767 134.549 36.9399 134.013 37.5156 133.622C38.0913 133.231 38.7595 132.997 39.4537 132.945C40.1478 132.892 40.8437 133.022 41.4718 133.322L42.8594 133.971" fill="white"/>
<path d="M41.3046 141.107L40.8443 141.177C39.6826 141.35 38.4998 141.054 37.556 140.355C36.6123 139.656 35.9848 138.61 35.8117 137.449C35.7997 137.362 35.7889 137.276 35.7809 137.19C35.733 136.496 35.868 135.801 36.1724 135.175C36.4767 134.549 36.9399 134.013 37.5156 133.622C38.0913 133.231 38.7595 132.997 39.4537 132.945C40.1478 132.892 40.8437 133.022 41.4718 133.322L42.8594 133.971" stroke="black" stroke-width="0.561" stroke-linecap="round" stroke-linejoin="round"/>
<path d="M38.6758 135.766C39.1635 135.769 39.639 135.919 40.0401 136.196C40.4412 136.474 40.7492 136.866 40.9238 137.321L41.1686 137.959" stroke="black" stroke-width="0.576" stroke-linecap="round" stroke-linejoin="round"/>
<path d="M57.8523 129.787L57.3344 132.483C57.24 132.976 57.2554 133.483 57.3796 133.969C57.5038 134.454 57.7337 134.907 58.053 135.293L59.5717 137.133C59.8202 137.434 59.9412 137.82 59.9089 138.209C59.8767 138.598 59.6937 138.958 59.3991 139.214L58.1346 140.314" stroke="black" stroke-width="0.576" stroke-linecap="round" stroke-linejoin="round"/>
<path d="M57.252 147.835C56.588 148.086 55.8688 148.153 55.1699 148.029" stroke="black" stroke-width="0.576" stroke-linecap="round" stroke-linejoin="round"/>
<path d="M61.0973 142.969L60.2008 143.585C59.4957 144.082 58.6576 144.356 57.7951 144.371C56.9326 144.386 56.0854 144.141 55.3635 143.669L54.5312 143.165" stroke="black" stroke-width="0.576" stroke-linecap="round" stroke-linejoin="round"/>
<path d="M53.8359 143.733C54.094 143.234 54.4542 142.795 54.893 142.444" stroke="black" stroke-width="0.576" stroke-linecap="round" stroke-linejoin="round"/>
<path d="M54.4805 143.725L54.7909 145.016C54.8771 145.375 55.0583 145.704 55.3157 145.969C55.573 146.234 55.897 146.425 56.2534 146.521V146.521C56.6716 146.635 57.115 146.614 57.5206 146.461C57.9261 146.309 58.2731 146.032 58.5121 145.67L59.6616 143.931" stroke="black" stroke-width="0.576" stroke-linecap="round" stroke-linejoin="round"/>
<path d="M59.7168 128.946L60.2681 128.363C60.886 127.709 61.7121 127.29 62.6051 127.178C63.498 127.066 64.4022 127.267 65.1628 127.748L65.3114 127.84" stroke="black" stroke-width="0.576" stroke-linecap="round" stroke-linejoin="round"/>
<path d="M46.1094 130.971L46.6673 130.48C47.5064 129.74 48.5481 129.27 49.6576 129.129C50.7672 128.988 51.8935 129.183 52.8908 129.689V129.689" stroke="black" stroke-width="0.576" stroke-linecap="round" stroke-linejoin="round"/>
<path d="M46.1191 129.812L46.5567 130.326" stroke="black" stroke-width="0.576" stroke-linecap="round" stroke-linejoin="round"/>
<path d="M48.2637 128.595L48.5072 129.184" stroke="black" stroke-width="0.576" stroke-linecap="round" stroke-linejoin="round"/>
<path d="M65.4369 126.938L65.168 127.556" stroke="black" stroke-width="0.576" stroke-linecap="round" stroke-linejoin="round"/>
<path d="M63.0309 126.395L62.9707 127.029" stroke="black" stroke-width="0.576" stroke-linecap="round" stroke-linejoin="round"/>
<path d="M51.9391 133.658C52.5173 133.572 52.8894 132.854 52.7704 132.055C52.6513 131.255 52.086 130.676 51.5078 130.763C50.9296 130.849 50.5575 131.567 50.6766 132.366C50.7957 133.166 51.3609 133.744 51.9391 133.658Z" fill="#231F20"/>
<path d="M63.8786 131.881C64.4567 131.795 64.8289 131.077 64.7098 130.278C64.5907 129.478 64.0255 128.9 63.4473 128.986C62.8691 129.072 62.4969 129.79 62.616 130.589C62.7351 131.389 63.3004 131.968 63.8786 131.881Z" fill="#231F20"/>
<path d="M61.609 132.942C61.4088 132.972 61.2266 133.074 61.0974 133.23C60.9682 133.385 60.901 133.583 60.9088 133.785C60.9166 133.987 60.9988 134.18 61.1397 134.325C61.2805 134.47 61.4701 134.558 61.6719 134.572C61.7309 134.58 61.7908 134.58 61.8498 134.572L65.171 134.069C65.3703 134.04 65.552 133.938 65.6811 133.784C65.8101 133.629 65.8776 133.432 65.8705 133.231C65.8633 133.03 65.7821 132.838 65.6424 132.693C65.5027 132.548 65.3143 132.459 65.1134 132.444C65.0507 132.437 64.9874 132.437 64.9248 132.444L61.609 132.942Z" fill="#F4DFE7"/>
<path d="M49.0289 135.13C48.8287 135.16 48.6466 135.262 48.5173 135.418C48.3881 135.573 48.3209 135.771 48.3287 135.973C48.3365 136.175 48.4188 136.368 48.5596 136.513C48.7004 136.658 48.89 136.746 49.0918 136.76C49.1509 136.767 49.2106 136.767 49.2697 136.76L52.5909 136.257C52.7902 136.228 52.9719 136.126 53.101 135.972C53.2301 135.817 53.2975 135.62 53.2904 135.419C53.2832 135.218 53.202 135.026 53.0623 134.881C52.9226 134.736 52.7343 134.647 52.5333 134.632C52.4707 134.624 52.4073 134.624 52.3447 134.632L49.0289 135.13Z" fill="#F4DFE7"/>
<path d="M35.3139 132.966L34.1016 129.559L35.0235 128.74L35.0034 120.546L40.0414 111.848L47.2376 110.423L47.1038 110.259L49.0601 110.062L50.9896 109.681L50.9107 109.876L58.2087 109.143L65.5682 115.991L68.2979 125.031L69.161 129.304C67.1618 127.21 68.3581 125.129 65.5789 124.317L62.6177 123.452C60.9201 122.957 59.3416 122.119 57.9792 120.992C56.6167 119.864 55.4991 118.47 54.6948 116.895L54.5369 117.698C54.1794 119.525 53.4645 121.262 52.4332 122.812C51.4019 124.361 50.0746 125.691 48.5276 126.725L46.1872 128.289C44.2365 129.594 42.5999 131.316 41.3955 133.33L39.0819 133.025L37.2929 133.984L36.0659 135.055L35.6645 133.919C35.5922 134.053 35.5213 134.186 35.453 134.32L35.3139 132.966Z" fill="black"/>
<path d="M31.7541 202.968C31.3004 202.278 31.0117 201.492 30.9101 200.672C30.8084 199.851 30.8967 199.019 31.168 198.238L31.5467 197.152C31.8983 196.14 32.5436 195.255 33.4002 194.612C34.2568 193.968 35.2858 193.595 36.3558 193.539L44.486 193.117L46.627 182.856C46.7234 182.39 46.9957 181.981 47.387 181.711L51.6596 178.774L58.9896 178.373C59.302 178.356 59.6122 178.434 59.8791 178.597C60.146 178.761 60.3571 179.001 60.4843 179.287C60.6288 179.612 60.6787 179.971 60.6283 180.323C60.5779 180.676 60.4292 181.006 60.1993 181.278C59.8851 181.65 59.4392 181.886 58.9548 181.938L54.3384 182.429L50.7925 184.381L56.5021 185.227C56.8071 185.272 57.1008 185.375 57.3679 185.529L61.3072 187.804C61.3785 188.373 61.3191 188.95 61.1337 189.493C60.9482 190.036 60.6414 190.529 60.2367 190.935L60.0534 191.118L60.1872 192.534L59.2867 193.37L59.094 195.171L57.6783 195.879L52.9214 194.987C53.0188 196.642 52.6797 198.295 51.9379 199.778C51.548 200.558 50.99 201.241 50.3042 201.778C49.6183 202.316 48.8217 202.694 47.9718 202.887L37.4557 205.266C36.3844 205.509 35.2643 205.42 34.2454 205.009C33.2264 204.599 32.3571 203.887 31.7541 202.968Z" fill="white" stroke="black" stroke-width="0.576" stroke-linecap="round" stroke-linejoin="round"/>
<path d="M60.0467 191.116L54.0293 188.958" stroke="black" stroke-width="0.576" stroke-linecap="round" stroke-linejoin="round"/>
<path d="M59.2782 193.368L53.7305 191.978" stroke="black" stroke-width="0.576" stroke-linecap="round" stroke-linejoin="round"/>
<path d="M50.7882 184.374L49.2734 184.339" stroke="black" stroke-width="0.576" stroke-linecap="round" stroke-linejoin="round"/>
<path d="M44.484 193.119L43.9648 196.289" stroke="black" stroke-width="0.576" stroke-linecap="round" stroke-linejoin="round"/>
<path d="M37.0346 176.328L32.0409 187.402C31.575 188.435 31.3613 189.564 31.4173 190.696L31.4561 191.453L30.8968 191.301C29.4593 190.909 27.9698 190.741 26.4811 190.804C24.1346 190.904 21.8553 191.618 19.8709 192.875L19.0118 193.416C17.6012 194.31 16.5602 195.682 16.0801 197.281" fill="#D11F40"/>
<path d="M37.0346 176.328L32.0409 187.402C31.575 188.435 31.3613 189.564 31.4173 190.696L31.4561 191.453L30.8968 191.301C29.4593 190.909 27.9698 190.741 26.4811 190.804V190.804C24.1346 190.904 21.8553 191.618 19.8709 192.875L19.0118 193.416C17.6012 194.31 16.5602 195.682 16.0801 197.281V197.281" stroke="black" stroke-width="0.576" stroke-linecap="round" stroke-linejoin="round"/>
<path d="M121.949 203.317H71.1554C70.39 203.317 69.6345 203.144 68.9455 202.811C68.2564 202.478 67.6515 201.993 67.1761 201.394C66.7008 200.794 66.3672 200.094 66.2003 199.347C66.0334 198.6 66.0376 197.825 66.2125 197.08L73.5639 165.741C73.8253 164.626 74.4558 163.632 75.3531 162.921C76.2505 162.21 77.3619 161.823 78.5069 161.823H133.359C133.704 161.823 134.044 161.901 134.355 162.051C134.665 162.201 134.938 162.42 135.152 162.69C135.366 162.96 135.517 163.275 135.592 163.611C135.668 163.948 135.667 164.297 135.589 164.633L127.56 198.865C127.264 200.131 126.549 201.26 125.53 202.068C124.511 202.876 123.25 203.316 121.949 203.317Z" fill="white" stroke="black" stroke-width="0.576" stroke-miterlimit="10"/>
<path d="M43.5749 203.316H123.386C123.386 203.953 123.26 204.583 123.017 205.171C122.773 205.758 122.416 206.293 121.966 206.742C121.516 207.192 120.982 207.549 120.394 207.793C119.807 208.036 119.177 208.162 118.54 208.162H45.6142C44.7007 208.162 43.8246 207.799 43.1787 207.153C42.5328 206.507 42.1699 205.631 42.1699 204.717C42.1699 204.346 42.3174 203.99 42.5799 203.728C42.8424 203.465 43.1984 203.318 43.5696 203.318L43.5749 203.316Z" fill="white" stroke="black" stroke-width="0.576" stroke-miterlimit="10"/>
<path d="M108.05 183.316C109.108 181.095 108.458 178.576 106.598 177.69C104.738 176.804 102.372 177.886 101.314 180.107C100.256 182.328 100.906 184.847 102.766 185.733C104.627 186.619 106.992 185.537 108.05 183.316Z" fill="white" stroke="black" stroke-width="0.576" stroke-miterlimit="10"/>
<path d="M0.505859 208.125H161.077C162.213 208.125 163.302 208.576 164.105 209.379C164.908 210.182 165.359 211.271 165.359 212.407C165.359 213.543 164.908 214.632 164.105 215.435C163.302 216.238 162.213 216.689 161.077 216.689H0.505859V208.125Z" fill="white" stroke="black" stroke-width="0.591" stroke-linecap="round" stroke-linejoin="round"/>
<path d="M160.539 216.686H0.5V219.645H160.539V216.686Z" fill="white" stroke="black" stroke-width="0.591" stroke-linecap="round" stroke-linejoin="round"/>
<path d="M294.212 132.394C297.285 113.457 284.424 95.6134 265.486 92.5404C246.549 89.4674 228.706 102.328 225.633 121.266C222.56 140.204 235.42 158.047 254.358 161.12C273.296 164.193 291.139 151.332 294.212 132.394Z" fill="white"/>
<path d="M259.922 92.4817C266.717 92.4817 273.359 94.4964 279.008 98.2712C284.657 102.046 289.06 107.411 291.66 113.688C294.26 119.965 294.941 126.873 293.615 133.536C292.29 140.2 289.018 146.321 284.214 151.126C279.409 155.93 273.288 159.202 266.624 160.527C259.961 161.853 253.053 161.173 246.776 158.572C240.499 155.972 235.134 151.569 231.359 145.92C227.584 140.271 225.57 133.629 225.57 126.835C225.57 117.724 229.189 108.986 235.631 102.543C242.074 96.101 250.812 92.4817 259.922 92.4817ZM259.922 91.7109C252.976 91.7109 246.185 93.7709 240.409 97.6304C234.633 101.49 230.131 106.975 227.472 113.393C224.814 119.811 224.118 126.874 225.474 133.687C226.829 140.5 230.174 146.759 235.086 151.671C239.998 156.583 246.257 159.928 253.07 161.283C259.884 162.639 266.946 161.943 273.364 159.285C279.782 156.626 285.267 152.124 289.127 146.348C292.986 140.572 295.046 133.781 295.046 126.835C295.035 117.522 291.332 108.595 284.747 102.01C278.162 95.4255 269.235 91.7216 259.922 91.7109Z" fill="black"/>
<path d="M287.979 159.105C292.43 159.105 296.039 155.496 296.039 151.044C296.039 146.592 292.43 142.983 287.979 142.983C283.527 142.983 279.918 146.592 279.918 151.044C279.918 155.496 283.527 159.105 287.979 159.105Z" fill="white" stroke="black" stroke-width="0.396" stroke-linecap="round" stroke-linejoin="round"/>
<path d="M287.978 155.358C290.361 155.358 292.292 153.427 292.292 151.044C292.292 148.662 290.361 146.73 287.978 146.73C285.596 146.73 283.664 148.662 283.664 151.044C283.664 153.427 285.596 155.358 287.978 155.358Z" fill="black" stroke="black" stroke-width="0.396" stroke-linecap="round" stroke-linejoin="round"/>
<path d="M285.83 144.125C285.555 143.581 284.892 143.362 284.347 143.636C283.803 143.91 283.584 144.574 283.858 145.119L286.92 151.195C287.194 151.74 287.858 151.959 288.402 151.684C288.947 151.41 289.166 150.746 288.891 150.202L285.83 144.125Z" fill="white" stroke="black" stroke-width="0.396" stroke-linecap="round" stroke-linejoin="round"/>
<path d="M285.393 138.188L285.424 138.201C288.738 139.694 291.854 141.593 294.701 143.853L294.936 144.04L294.305 144.576L290.475 144.106C289.771 144.02 289.061 144 288.354 144.046C286.713 144.154 285.115 144.618 283.671 145.405L278.051 148.465L285.393 138.188Z" fill="#D11F40" stroke="black" stroke-width="0.396" stroke-linecap="round" stroke-linejoin="round"/>
<path d="M242.998 159.105C247.45 159.105 251.059 155.496 251.059 151.044C251.059 146.592 247.45 142.983 242.998 142.983C238.546 142.983 234.938 146.592 234.938 151.044C234.938 155.496 238.546 159.105 242.998 159.105Z" fill="white" stroke="black" stroke-width="0.396" stroke-linecap="round" stroke-linejoin="round"/>
<path d="M242.998 155.358C245.38 155.358 247.312 153.427 247.312 151.044C247.312 148.662 245.38 146.73 242.998 146.73C240.615 146.73 238.684 148.662 238.684 151.044C238.684 153.427 240.615 155.358 242.998 155.358Z" fill="black" stroke="black" stroke-width="0.396" stroke-linecap="round" stroke-linejoin="round"/>
<path d="M252.399 146.268L242.51 148.138C240.96 148.431 239.941 149.925 240.234 151.475C240.527 153.025 242.021 154.044 243.572 153.75L253.46 151.88C255.011 151.587 256.03 150.093 255.737 148.543C255.443 146.993 253.949 145.974 252.399 146.268Z" fill="#D11F40" stroke="black" stroke-width="0.396" stroke-linecap="round" stroke-linejoin="round"/>
<path d="M239.367 133.881L236.46 136.01C235.632 136.616 234.962 137.412 234.506 138.331C234.05 139.25 233.821 140.265 233.839 141.291V141.349C233.843 141.809 233.999 142.256 234.283 142.619C234.567 142.982 234.962 143.241 235.408 143.356C238.879 144.246 247.326 146.433 251.432 147.504C252.147 147.689 252.807 148.046 253.353 148.543C253.9 149.04 254.317 149.663 254.569 150.358C254.724 150.789 255.009 151.161 255.384 151.425C255.759 151.688 256.206 151.829 256.664 151.83H272.433C273.593 151.83 274.735 151.558 275.77 151.035C276.804 150.512 277.701 149.753 278.388 148.819L286.562 137.713C286.765 137.437 286.878 137.105 286.884 136.762C286.891 136.419 286.791 136.083 286.599 135.8L279.191 124.863C278.947 124.503 278.604 124.221 278.203 124.052C277.803 123.882 277.362 123.832 276.933 123.908L276.646 123.105L277.297 122.943C277.894 122.794 278.42 122.444 278.789 121.952C279.158 121.461 279.346 120.857 279.322 120.243C279.302 119.746 279.144 119.264 278.866 118.851L278.419 118.182C278.174 117.819 277.843 117.521 277.457 117.315C277.07 117.11 276.638 117.002 276.2 117.002H275.768C275.519 117.002 275.276 117.078 275.071 117.22C274.867 117.361 274.71 117.562 274.623 117.795L274.231 118.843L273.045 119.464C272.439 119.783 271.973 120.315 271.736 120.957C271.499 121.6 271.51 122.308 271.764 122.943C272.612 125.048 273.728 127.034 275.086 128.852C276.338 130.529 276.904 132.621 276.669 134.701L275.713 143.143C275.631 143.87 275.342 144.559 274.881 145.127C274.458 145.649 273.908 146.053 273.283 146.3C272.658 146.547 271.98 146.628 271.315 146.535C269.442 146.275 266.793 145.893 265.035 145.639C263.852 145.467 262.773 144.866 262.004 143.95L261.966 143.904C261.424 143.261 261.051 142.494 260.88 141.67C260.709 140.847 260.746 139.994 260.987 139.189L261.313 138.102C261.566 137.257 262.037 136.493 262.677 135.885L263.946 134.681C264.295 134.35 264.538 133.922 264.643 133.452L264.651 133.418C264.784 132.83 264.704 132.215 264.428 131.68C264.151 131.145 263.694 130.725 263.138 130.494L262.668 130.3C262.358 130.172 262.026 130.106 261.691 130.106H241.441C241.302 130.106 241.163 130.125 241.03 130.163L239.586 130.581C239.278 130.668 239.006 130.854 238.813 131.11C238.62 131.366 238.515 131.677 238.515 131.998C238.515 132.253 238.581 132.504 238.707 132.726L239.367 133.881Z" fill="white" stroke="black" stroke-width="0.396" stroke-linecap="round" stroke-linejoin="round"/>
<path d="M263.948 134.681C264.297 134.35 264.54 133.922 264.645 133.453L264.653 133.418C264.786 132.83 264.707 132.215 264.43 131.68C264.153 131.145 263.696 130.725 263.14 130.494L262.67 130.3C262.361 130.172 262.029 130.106 261.694 130.106H241.442C241.303 130.106 241.164 130.125 241.031 130.163L239.587 130.581C239.373 130.642 239.176 130.752 239.01 130.9C238.844 131.049 238.715 131.233 238.631 131.439C238.547 131.646 238.51 131.868 238.525 132.09C238.539 132.312 238.603 132.528 238.713 132.722L239.367 133.877L262.68 135.884L263.948 134.681Z" fill="white" stroke="black" stroke-width="0.396" stroke-linecap="round" stroke-linejoin="round"/>
<path d="M237.496 135.266H236.445C235.944 135.266 235.454 135.41 235.034 135.681C234.613 135.952 234.279 136.338 234.072 136.794C233.914 137.142 233.834 137.521 233.838 137.904L233.869 140.464L237.496 135.266Z" fill="white" stroke="black" stroke-width="0.396" stroke-linecap="round" stroke-linejoin="round"/>
<path d="M273.7 119.019L271.118 115.244H270.89C270.623 115.244 270.368 115.138 270.179 114.95C269.991 114.761 269.885 114.506 269.885 114.239V112.224C269.885 112.15 269.899 112.076 269.928 112.008C269.956 111.939 269.998 111.877 270.05 111.825C270.103 111.772 270.165 111.731 270.233 111.702C270.302 111.674 270.375 111.659 270.449 111.659C270.556 111.66 270.66 111.69 270.749 111.746C270.839 111.803 270.912 111.883 270.958 111.979L272.135 114.417V115.086L274.395 118.378" fill="#D11F40"/>
<path d="M273.7 119.019L271.118 115.244H270.89C270.623 115.244 270.368 115.138 270.179 114.95C269.991 114.761 269.885 114.506 269.885 114.239V112.224C269.885 112.15 269.899 112.076 269.928 112.008C269.956 111.939 269.998 111.877 270.05 111.825C270.103 111.772 270.165 111.731 270.233 111.702C270.302 111.674 270.375 111.659 270.449 111.659V111.659C270.556 111.66 270.66 111.69 270.749 111.746C270.839 111.803 270.912 111.883 270.958 111.979L272.135 114.417V115.086L274.395 118.378" stroke="black" stroke-width="0.396" stroke-linecap="round" stroke-linejoin="round"/>
<path d="M251.926 114.979H232.457V130.105H251.926V114.979Z" fill="white" stroke="black" stroke-width="0.396" stroke-linecap="round" stroke-linejoin="round"/>
<path d="M251.923 114.979H248.127V130.105H251.923V114.979Z" fill="white" stroke="black" stroke-width="0.396" stroke-linecap="round" stroke-linejoin="round"/>
<path d="M243.016 114.979H237.318V122.255H243.016V114.979Z" fill="#D11F40" stroke="black" stroke-width="0.396" stroke-miterlimit="10"/>
<path d="M259.487 107.907L258.232 108.896C257.397 109.554 256.731 110.403 256.289 111.37L255.983 112.039C254.337 115.64 253.336 119.502 253.027 123.449L252.77 124.478C252.714 124.702 252.71 124.936 252.758 125.161C252.806 125.387 252.906 125.599 253.048 125.78L253.658 126.557L253.893 127.861C253.998 128.455 254.258 129.01 254.645 129.473C255.033 129.935 255.534 130.288 256.1 130.497L256.304 130.572C257.379 130.968 258.522 131.15 259.668 131.107L264.886 130.906C266.128 130.859 267.363 131.109 268.488 131.635L269.059 131.903L266.29 142.297L265.594 144.706L267.049 145.687L269.612 145.972L270.773 146.285C271.777 146.557 272.83 146.591 273.85 146.385L274.316 146.292C274.496 146.254 274.658 146.156 274.775 146.013C274.891 145.87 274.955 145.692 274.955 145.507C274.955 145.256 274.886 145.01 274.756 144.796C274.625 144.581 274.438 144.407 274.215 144.291L272.208 143.25L271.138 142.775L271.644 142.459L275.013 131.104C275.151 130.641 275.182 130.152 275.104 129.675C275.027 129.197 274.842 128.744 274.565 128.348C273.811 127.271 272.677 126.52 271.391 126.248L262.484 124.366L262.538 124.154C262.828 122.992 263.047 121.813 263.191 120.624L263.895 114.849L263.694 112.842L263.333 111.528L263.366 109.922L259.953 107.492L259.487 107.907Z" fill="white" stroke="black" stroke-width="0.396" stroke-linecap="round" stroke-linejoin="round"/>
<path d="M260.232 107.582L260.325 106.957L260.027 105.653C259.798 104.646 259.85 103.596 260.176 102.616C260.359 102.067 260.664 101.567 261.069 101.154C261.475 100.741 261.968 100.426 262.514 100.233C262.961 100.074 263.439 100.022 263.91 100.08C264.38 100.139 264.831 100.306 265.226 100.569L265.777 100.937C266.386 101.344 266.813 101.972 266.967 102.688L267.046 103.06C267.126 103.434 267.118 103.822 267.024 104.192L266.59 105.917L266.814 106.832C266.842 106.945 266.829 107.064 266.777 107.168C266.726 107.273 266.64 107.355 266.533 107.402L266.132 107.582L265.413 108.845C265.265 109.106 265.037 109.314 264.763 109.438C264.659 109.485 264.544 109.504 264.43 109.493C264.316 109.482 264.207 109.442 264.114 109.376L263.761 109.126C263.679 109.067 263.58 109.038 263.479 109.043C263.379 109.047 263.283 109.085 263.207 109.151L262.503 109.755" fill="white"/>
<path d="M260.232 107.582L260.325 106.957L260.027 105.653C259.798 104.646 259.85 103.596 260.176 102.616V102.616C260.359 102.067 260.664 101.567 261.069 101.154C261.475 100.741 261.968 100.426 262.514 100.233V100.233C262.961 100.074 263.439 100.022 263.91 100.08C264.38 100.139 264.831 100.306 265.226 100.569L265.777 100.937C266.386 101.344 266.813 101.972 266.967 102.688L267.046 103.06C267.126 103.434 267.118 103.822 267.024 104.192L266.59 105.917L266.814 106.832C266.842 106.945 266.829 107.064 266.777 107.168C266.726 107.273 266.64 107.355 266.533 107.402L266.132 107.582L265.413 108.845C265.265 109.106 265.037 109.314 264.763 109.438C264.659 109.485 264.544 109.504 264.43 109.493C264.316 109.482 264.207 109.442 264.114 109.376L263.761 109.126C263.679 109.067 263.58 109.038 263.479 109.043C263.379 109.047 263.283 109.085 263.207 109.151L262.503 109.755" stroke="black" stroke-width="0.396" stroke-linecap="round" stroke-linejoin="round"/>
<path d="M264.35 107.443C264.372 107.61 264.443 107.767 264.555 107.894C264.667 108.021 264.814 108.112 264.977 108.155H264.992" fill="white"/>
<path d="M264.35 107.443C264.372 107.61 264.443 107.767 264.555 107.894C264.667 108.021 264.814 108.112 264.977 108.155H264.992" stroke="black" stroke-width="0.198" stroke-linecap="round" stroke-linejoin="round"/>
<path d="M264.643 107.118C264.563 107.213 264.464 107.29 264.352 107.344C264.241 107.398 264.119 107.428 263.995 107.431H263.967" fill="white"/>
<path d="M264.643 107.118C264.563 107.213 264.464 107.29 264.352 107.344C264.241 107.398 264.119 107.428 263.995 107.431H263.967" stroke="black" stroke-width="0.198" stroke-linecap="round" stroke-linejoin="round"/>
<path d="M264.945 105.012L264.973 104.988C265.087 104.89 265.23 104.833 265.38 104.828C265.53 104.822 265.678 104.868 265.798 104.959" fill="white"/>
<path d="M264.945 105.012L264.973 104.988C265.087 104.89 265.23 104.833 265.38 104.828C265.53 104.822 265.678 104.868 265.798 104.959" stroke="black" stroke-width="0.198" stroke-linecap="round" stroke-linejoin="round"/>
<path d="M265.599 105.658C265.643 105.505 265.588 105.355 265.476 105.323C265.364 105.291 265.237 105.388 265.193 105.541C265.149 105.694 265.204 105.844 265.316 105.876C265.429 105.908 265.555 105.811 265.599 105.658Z" fill="black"/>
<path d="M262.484 124.321L262.529 124.149C262.819 122.987 263.037 121.808 263.182 120.619L263.885 114.844L263.685 112.837L263.323 111.523L263.357 109.917L259.943 107.488L259.487 107.912L258.232 108.901C257.397 109.56 256.731 110.408 256.289 111.375L255.983 112.044C254.337 115.645 253.336 119.507 253.027 123.454L252.77 124.483C252.714 124.707 252.71 124.941 252.758 125.166C252.806 125.392 252.905 125.604 253.047 125.785L253.658 126.563L253.708 126.83L259.719 125.673L262.484 124.321Z" fill="#D11F40" stroke="black" stroke-width="0.396" stroke-linecap="round" stroke-linejoin="round"/>
<path d="M258.135 116.075L263.115 119.955C263.727 120.433 264.433 120.775 265.187 120.96L272.519 122.757L272.795 122.257L273.77 122.457L274.975 121.788L275.851 122.139L275.751 122.914L275.025 123.315L274.975 123.89L276.527 123.339L276.876 121.613L275.475 120.363L273.2 120.563L267.555 118.514C266.479 118.123 265.561 117.388 264.943 116.424L261.987 111.811C261.825 111.56 261.621 111.339 261.384 111.157C261.074 110.92 260.707 110.768 260.321 110.716C259.934 110.663 259.541 110.711 259.178 110.856L258.615 111.081" fill="#D11F40"/>
<path d="M258.135 116.075L263.115 119.955C263.727 120.433 264.433 120.775 265.187 120.96L272.519 122.757L272.795 122.257L273.77 122.457L274.975 121.788L275.851 122.139L275.751 122.914L275.025 123.315L274.975 123.89L276.527 123.339L276.876 121.613L275.475 120.363L273.2 120.563L267.555 118.514C266.479 118.123 265.561 117.388 264.943 116.424L261.987 111.811C261.825 111.56 261.621 111.339 261.384 111.157C261.074 110.92 260.707 110.768 260.321 110.716C259.934 110.663 259.541 110.711 259.178 110.856L258.615 111.081" stroke="black" stroke-width="0.396" stroke-linecap="round" stroke-linejoin="round"/>
<path d="M273.768 122.457L274.972 121.788L275.849 122.138L275.749 122.913L275.023 123.315L274.972 123.89L276.525 123.339L276.874 121.613L275.473 120.363L273.238 120.558L272.667 122.468L272.656 122.518L272.79 122.263L273.768 122.457Z" fill="white" stroke="black" stroke-width="0.396" stroke-linecap="round" stroke-linejoin="round"/>
<path d="M271.635 142.454L269.195 142.397C268.491 142.381 267.803 142.179 267.2 141.813L266.557 141.422" fill="white"/>
<path d="M271.635 142.454L269.195 142.397C268.491 142.381 267.803 142.179 267.2 141.813L266.557 141.422" stroke="black" stroke-width="0.396" stroke-linecap="round" stroke-linejoin="round"/>
<path d="M259.445 106.081L258.789 102.762L259.603 101.528C260.023 100.89 260.604 100.374 261.287 100.033L261.845 99.7536C262.717 99.318 263.723 99.2346 264.655 99.5207L264.939 99.6077C265.42 99.7561 265.866 100.002 266.249 100.33C266.631 100.658 266.942 101.061 267.161 101.514L267.895 103.027C267.995 103.234 268.066 103.454 268.106 103.681C268.12 103.756 268.116 103.833 268.094 103.906C268.073 103.979 268.034 104.047 267.982 104.102C267.931 104.158 267.866 104.201 267.795 104.228C267.723 104.255 267.647 104.264 267.571 104.256L266.066 104.114C265.727 104.082 265.391 104.023 265.061 103.939L263.499 103.538L262.797 104.24L262.921 105.011C262.976 105.349 262.953 105.695 262.853 106.022C262.753 106.349 262.579 106.649 262.344 106.899L261.893 107.377L259.86 106.585C259.754 106.542 259.66 106.474 259.588 106.386C259.515 106.298 259.466 106.193 259.445 106.081Z" fill="#D11F40" stroke="black" stroke-width="0.396" stroke-linecap="round" stroke-linejoin="round"/>
<path d="M232.453 125.262H217.746" stroke="black" stroke-width="0.396" stroke-linecap="round" stroke-linejoin="round"/>
<path d="M232.453 121.001H226.529" stroke="black" stroke-width="0.396" stroke-linecap="round" stroke-linejoin="round"/>
<path d="M225.329 121.001H222.281" stroke="black" stroke-width="0.396" stroke-linecap="round" stroke-linejoin="round"/>
<path d="M232.455 123.009H220.52" stroke="black" stroke-width="0.396" stroke-linecap="round" stroke-linejoin="round"/>
<path d="M219.375 109.313C219.375 110.213 219.197 111.103 218.853 111.934C218.509 112.765 218.004 113.519 217.368 114.155L211.449 120.074C211.375 120.149 211.325 120.244 211.305 120.348C211.285 120.451 211.295 120.558 211.336 120.655C211.376 120.752 211.444 120.836 211.531 120.894C211.619 120.953 211.721 120.985 211.827 120.986H219.046" stroke="black" stroke-width="0.396" stroke-linecap="round" stroke-linejoin="round"/>
<path d="M216.463 109.313C216.463 110.213 216.286 111.103 215.941 111.934C215.597 112.765 215.092 113.519 214.456 114.155L208.623 119.989C208.376 120.237 208.207 120.552 208.139 120.896C208.071 121.24 208.107 121.596 208.241 121.92C208.376 122.243 208.603 122.52 208.895 122.714C209.187 122.908 209.529 123.011 209.88 123.01L216.895 122.991" stroke="black" stroke-width="0.396" stroke-linecap="round" stroke-linejoin="round"/>
<path d="M213.35 109.313V110.591C213.35 111.085 213.253 111.574 213.064 112.03C212.875 112.487 212.598 112.902 212.249 113.251L206.27 119.228C205.774 119.725 205.436 120.357 205.3 121.046C205.164 121.735 205.235 122.448 205.505 123.097C205.774 123.745 206.23 124.298 206.815 124.687C207.4 125.075 208.087 125.281 208.789 125.279L213.783 125.263" stroke="black" stroke-width="0.396" stroke-linecap="round" stroke-linejoin="round"/>
<path d="M253.548 46.7575C256.621 27.8198 243.76 9.97665 224.822 6.90365C205.885 3.83064 188.041 16.6915 184.968 35.6292C181.895 54.5669 194.756 72.4101 213.694 75.4831C232.632 78.5561 250.475 65.6952 253.548 46.7575Z" fill="white"/>
<path d="M219.262 6.84448C226.057 6.84448 232.698 8.85923 238.348 12.634C243.997 16.4087 248.4 21.7739 251 28.0511C253.6 34.3282 254.281 41.2355 252.955 47.8993C251.63 54.5631 248.358 60.6842 243.553 65.4885C238.749 70.2928 232.628 73.5646 225.964 74.8901C219.3 76.2157 212.393 75.5354 206.116 72.9353C199.839 70.3352 194.474 65.9321 190.699 60.2828C186.924 54.6335 184.909 47.9917 184.909 41.1974C184.909 32.0864 188.529 23.3486 194.971 16.9062C201.414 10.4638 210.151 6.84448 219.262 6.84448ZM219.262 6.07373C212.316 6.07373 205.525 8.13369 199.749 11.9931C193.973 15.8526 189.471 21.3381 186.812 27.7561C184.154 34.1741 183.458 41.2363 184.814 48.0496C186.169 54.8629 189.514 61.1214 194.426 66.0335C199.338 70.9456 205.597 74.2908 212.41 75.6461C219.223 77.0013 226.286 76.3058 232.704 73.6474C239.122 70.9889 244.607 66.487 248.466 60.711C252.326 54.9349 254.386 48.1442 254.386 41.1974C254.376 31.8852 250.672 22.9573 244.087 16.3726C237.502 9.78782 228.575 6.084 219.262 6.07373Z" fill="black"/>
<path d="M178.633 25.4746H213.045C214.86 25.4746 216.657 25.8383 218.329 26.5443C220.002 27.2504 221.515 28.2843 222.781 29.5852L232.951 40.0317L242.491 44.6763C242.977 44.9124 243.398 45.2633 243.717 45.6986C244.036 46.1339 244.245 46.6404 244.325 47.1744L244.415 47.7847C244.64 49.2946 244.619 50.8308 244.354 52.3342L244.116 53.683C243.964 54.5433 243.514 55.3226 242.845 55.884C242.175 56.4454 241.33 56.7529 240.456 56.7525H182.385L177.752 55.1053C176.922 54.8111 176.206 54.2652 175.702 53.5438C175.198 52.8224 174.932 51.9616 174.942 51.0817L175.17 28.9001C175.18 27.9881 175.549 27.1166 176.198 26.4752C176.846 25.8338 177.721 25.4742 178.633 25.4746Z" fill="white" stroke="black" stroke-width="0.396" stroke-linecap="round" stroke-linejoin="round"/>
<path d="M174.947 50.3453H177.356V43.2881C177.356 42.9986 177.241 42.7208 177.036 42.5161C176.831 42.3113 176.554 42.1963 176.264 42.1963H175.024L174.947 50.3453Z" fill="white" stroke="black" stroke-width="0.396" stroke-linecap="round" stroke-linejoin="round"/>
<path d="M174.947 48.3274H177.356V43.2881C177.356 42.9986 177.241 42.7208 177.036 42.5161C176.831 42.3113 176.554 42.1963 176.264 42.1963H175.024L174.947 48.3274Z" fill="#D11F40" stroke="black" stroke-width="0.396" stroke-linecap="round" stroke-linejoin="round"/>
<path opacity="0.88" d="M232.947 40.0315L224.828 31.6885H222.109L230.228 40.0315L231.051 40.4329H233.768L232.947 40.0315Z" fill="#D11F40" stroke="black" stroke-width="0.396" stroke-linecap="round" stroke-linejoin="round"/>
<path opacity="0.88" d="M227.925 40.0314L219.807 31.687H214.964C214.716 31.687 214.477 31.7857 214.302 31.9613C214.126 32.137 214.027 32.3752 214.027 32.6237V37.0233C214.027 37.471 214.115 37.9143 214.286 38.3279C214.458 38.7416 214.709 39.1175 215.025 39.4341C215.342 39.7507 215.717 40.0019 216.131 40.1732C216.545 40.3446 216.988 40.4328 217.435 40.4328H228.745L227.925 40.0314Z" fill="#D11F40" stroke="black" stroke-width="0.396" stroke-linecap="round" stroke-linejoin="round"/>
<path d="M181.267 55.0295C181.265 53.3239 181.852 51.6698 182.927 50.3462H174.95L174.942 51.0861C174.932 51.966 175.198 52.8268 175.702 53.5482C176.206 54.2696 176.922 54.8156 177.752 55.1098L181.395 56.4051C181.31 55.9515 181.267 55.491 181.267 55.0295Z" fill="#D11F40" stroke="black" stroke-width="0.396" stroke-linecap="round" stroke-linejoin="round"/>
<path d="M229.756 60.9862C233.046 60.9862 235.713 58.319 235.713 55.029C235.713 51.7389 233.046 49.0718 229.756 49.0718C226.466 49.0718 223.799 51.7389 223.799 55.029C223.799 58.319 226.466 60.9862 229.756 60.9862Z" fill="white" stroke="black" stroke-width="0.396" stroke-linecap="round" stroke-linejoin="round"/>
<path d="M235.545 50.3438C236.262 51.2297 236.766 52.2683 237.019 53.3797C237.271 54.4912 237.266 55.6457 237.002 56.7546H240.452C241.325 56.7549 242.171 56.4474 242.84 55.886C243.51 55.3246 243.96 54.5453 244.111 53.685L244.35 52.3362C244.465 51.6778 244.534 51.0119 244.554 50.3438H235.545Z" fill="#D11F40" stroke="black" stroke-width="0.396" stroke-linecap="round" stroke-linejoin="round"/>
<path d="M222.513 56.7551C222.248 55.6463 222.242 54.4915 222.494 53.3799C222.747 52.2683 223.252 51.2296 223.97 50.3442H178.887C179.604 51.2302 180.108 52.2688 180.361 53.3802C180.613 54.4916 180.608 55.6462 180.344 56.7551H222.513Z" fill="#D11F40" stroke="black" stroke-width="0.396" stroke-linecap="round" stroke-linejoin="round"/>
<path d="M229.756 57.3624C231.044 57.3624 232.088 56.3181 232.088 55.0301C232.088 53.742 231.044 52.6978 229.756 52.6978C228.468 52.6978 227.424 53.742 227.424 55.0301C227.424 56.3181 228.468 57.3624 229.756 57.3624Z" fill="black" stroke="black" stroke-width="0.396" stroke-linecap="round" stroke-linejoin="round"/>
<path d="M210.434 28.9395H190.965V44.0653H210.434V28.9395Z" fill="white" stroke="black" stroke-width="0.396" stroke-linecap="round" stroke-linejoin="round"/>
<path d="M210.431 28.9395H206.635V44.0653H210.431V28.9395Z" fill="white" stroke="black" stroke-width="0.396" stroke-linecap="round" stroke-linejoin="round"/>
<path d="M201.524 28.9385H195.826V36.2137H201.524V28.9385Z" fill="#D11F40" stroke="black" stroke-width="0.396" stroke-miterlimit="10"/>
<path d="M276.872 207.3L265.425 182.565C264.061 179.767 262.09 177.308 259.654 175.369C257.219 173.43 254.382 172.06 251.349 171.357L248.9 188.145L261.577 210.949" fill="white"/>
<path d="M276.872 207.3L265.425 182.565C264.061 179.767 262.09 177.308 259.654 175.369C257.219 173.43 254.382 172.06 251.349 171.357V171.357L248.9 188.145L261.577 210.949" stroke="black" stroke-width="0.589" stroke-miterlimit="10"/>
<path d="M170.656 217.03L182.104 192.296C183.467 189.497 185.439 187.039 187.874 185.099C190.31 183.16 193.147 181.79 196.18 181.088L198.629 197.876L183.273 224.197" fill="white"/>
<path d="M170.656 217.03L182.104 192.296C183.467 189.497 185.439 187.039 187.874 185.099C190.31 183.16 193.147 181.79 196.18 181.088V181.088L198.629 197.876L183.273 224.197" stroke="black" stroke-width="0.589" stroke-miterlimit="10"/>
<path d="M194.446 206.208L191.359 247.44L248.248 253.885L249.929 211.766L252.772 190.834L256.338 173.172C256.565 172.05 256.519 170.89 256.203 169.789C255.887 168.689 255.311 167.681 254.524 166.85C253.737 166.019 252.761 165.39 251.68 165.015C250.598 164.64 249.442 164.531 248.31 164.696L233.671 166.837L216.719 170.073L194.398 176.755C192.769 177.244 191.395 178.351 190.57 179.839C189.745 181.327 189.534 183.078 189.982 184.719C190.572 186.882 191.098 188.797 191.122 188.849L194.446 206.208Z" fill="#D11F40" stroke="black" stroke-width="0.589" stroke-miterlimit="10"/>
<path d="M255.231 167.648L270.668 186.763L267.621 187.729C261.722 189.602 256.718 193.58 253.563 198.906C252.947 200.036 252.233 201.11 251.432 202.117L253.682 179.747" fill="#D11F40"/>
<path d="M255.231 167.648L270.668 186.763L267.621 187.729C261.722 189.602 256.718 193.58 253.563 198.906C252.947 200.036 252.233 201.11 251.432 202.117L253.682 179.747" stroke="black" stroke-width="0.589" stroke-linecap="round" stroke-linejoin="round"/>
<path d="M190.623 179.78L175.324 196.614L177.373 199.85C180.48 204.76 184.842 208.75 190.008 211.409L193.866 213.393L195.006 202.672" fill="#D11F40"/>
<path d="M190.623 179.78L175.324 196.614L177.373 199.85C180.48 204.76 184.842 208.75 190.008 211.409L193.866 213.393L195.006 202.672" stroke="black" stroke-width="0.589" stroke-miterlimit="10"/>
<path d="M199.859 218.159L204.852 225.484C208.706 231.139 214.268 235.411 220.726 237.677" fill="#D11F40"/>
<path d="M199.859 218.159L204.852 225.484C208.706 231.139 214.268 235.411 220.726 237.677" stroke="black" stroke-width="0.589" stroke-linecap="round" stroke-linejoin="round"/>
<path d="M286.757 238.745H235.966C235.201 238.745 234.445 238.572 233.756 238.239C233.067 237.906 232.462 237.422 231.987 236.822C231.511 236.222 231.178 235.522 231.011 234.776C230.844 234.029 230.848 233.254 231.023 232.508L238.374 201.169C238.637 200.055 239.268 199.062 240.165 198.351C241.062 197.64 242.173 197.252 243.317 197.251H298.17C298.515 197.251 298.855 197.329 299.165 197.48C299.476 197.63 299.748 197.848 299.963 198.118C300.177 198.388 300.328 198.703 300.404 199.039C300.479 199.376 300.478 199.725 300.4 200.061L292.372 234.293C292.076 235.56 291.36 236.69 290.341 237.498C289.321 238.306 288.058 238.746 286.757 238.745Z" fill="white" stroke="black" stroke-width="0.576" stroke-miterlimit="10"/>
<path d="M208.385 238.746H288.196C288.196 240.031 287.686 241.264 286.777 242.172C285.868 243.081 284.636 243.591 283.351 243.591H210.425C209.511 243.591 208.635 243.228 207.989 242.583C207.343 241.937 206.98 241.061 206.98 240.147C206.98 239.963 207.017 239.781 207.087 239.611C207.157 239.442 207.26 239.287 207.39 239.157C207.52 239.027 207.675 238.924 207.844 238.854C208.014 238.784 208.196 238.747 208.38 238.747L208.385 238.746Z" fill="white" stroke="black" stroke-width="0.576" stroke-miterlimit="10"/>
<path d="M272.855 218.746C273.913 216.525 273.263 214.006 271.402 213.12C269.542 212.234 267.177 213.316 266.119 215.537C265.061 217.758 265.711 220.277 267.571 221.163C269.431 222.049 271.797 220.967 272.855 218.746Z" fill="white" stroke="black" stroke-width="0.576" stroke-miterlimit="10"/>
<path d="M228.511 166.101L224.271 158.245L207.812 169.628L213.668 176.368C213.98 176.727 214.213 177.147 214.351 177.602C214.49 178.057 214.53 178.535 214.471 179.007C214.393 179.555 214.466 180.113 214.682 180.622C214.899 181.131 215.251 181.571 215.699 181.895C216.348 182.351 217.101 182.637 217.889 182.726C218.677 182.815 219.475 182.705 220.209 182.404L220.718 182.196C224.802 180.527 228.087 177.352 229.894 173.327L231.182 170.457C231.42 169.93 231.438 169.331 231.234 168.791C231.03 168.25 230.62 167.813 230.094 167.574C229.419 167.27 228.863 166.753 228.511 166.101Z" fill="white" stroke="black" stroke-width="0.589" stroke-miterlimit="10"/>
<path d="M225.451 169.043C222.909 172.778 219.373 175.728 215.243 177.56C214.975 177.68 214.702 177.795 214.424 177.905C214.309 177.336 214.049 176.806 213.668 176.367L207.812 169.627L224.271 158.244L227.6 164.41C227.142 166.061 226.416 167.626 225.451 169.043Z" fill="black" stroke="black" stroke-width="0.589" stroke-miterlimit="10"/>
<path d="M234.131 151.148C233.22 160.77 219.828 177.273 210.206 176.363C200.584 175.453 198.378 157.472 199.29 147.851C199.506 145.563 200.171 143.341 201.247 141.31C202.322 139.279 203.787 137.48 205.558 136.016C207.329 134.551 209.37 133.449 211.567 132.774C213.763 132.099 216.071 131.862 218.359 132.079C220.647 132.295 222.869 132.96 224.9 134.036C226.931 135.111 228.73 136.576 230.194 138.347C231.659 140.118 232.76 142.159 233.436 144.356C234.111 146.552 234.347 148.86 234.131 151.148Z" fill="white" stroke="black" stroke-width="0.589" stroke-miterlimit="10"/>
<path d="M228.227 163.175L228.715 163.222C229.943 163.338 231.168 162.961 232.118 162.175C233.069 161.388 233.669 160.256 233.785 159.028C233.793 158.937 233.8 158.846 233.802 158.76C233.815 158.029 233.635 157.306 233.281 156.666C232.926 156.025 232.411 155.488 231.784 155.109C231.158 154.73 230.444 154.522 229.712 154.505C228.98 154.488 228.257 154.664 227.614 155.014L226.195 155.774" fill="white"/>
<path d="M228.227 163.175L228.715 163.222C229.943 163.338 231.168 162.961 232.118 162.175C233.069 161.388 233.669 160.256 233.785 159.028C233.793 158.937 233.8 158.846 233.802 158.76C233.815 158.029 233.635 157.306 233.281 156.666C232.926 156.025 232.411 155.488 231.784 155.109C231.158 154.73 230.444 154.522 229.712 154.505C228.98 154.488 228.257 154.664 227.614 155.014L226.195 155.774" stroke="black" stroke-width="0.589" stroke-linecap="round" stroke-linejoin="round"/>
<path d="M230.689 157.421C230.177 157.451 229.685 157.634 229.279 157.948C228.873 158.261 228.572 158.69 228.414 159.178L228.193 159.863" stroke="black" stroke-width="0.589" stroke-linecap="round" stroke-linejoin="round"/>
<path d="M209.12 152.071L209.813 154.87C209.94 155.382 209.952 155.915 209.849 156.432C209.746 156.949 209.531 157.437 209.217 157.861L207.728 159.868C207.484 160.197 207.379 160.609 207.434 161.015C207.49 161.422 207.702 161.79 208.025 162.042L209.413 163.125" stroke="black" stroke-width="0.589" stroke-linecap="round" stroke-linejoin="round"/>
<path d="M209.889 170.68C210.599 170.906 211.358 170.936 212.084 170.767" stroke="black" stroke-width="0.589" stroke-linecap="round" stroke-linejoin="round"/>
<path d="M206.791 165.081L207.768 165.677C208.536 166.16 209.432 166.4 210.338 166.368C211.245 166.335 212.121 166.031 212.853 165.495L213.697 164.918L213.577 165.903C213.436 167.047 212.851 168.089 211.948 168.805C211.667 169.028 211.335 169.177 210.982 169.24C210.629 169.303 210.266 169.277 209.925 169.165V169.165C209.464 169.014 209.045 168.756 208.703 168.412C208.36 168.068 208.104 167.649 207.954 167.187L207.499 165.782" stroke="black" stroke-width="0.589" stroke-linecap="round" stroke-linejoin="round"/>
<path d="M214.449 165.476C214.15 164.968 213.747 164.527 213.268 164.184" stroke="black" stroke-width="0.589" stroke-linecap="round" stroke-linejoin="round"/>
<path d="M207.125 151.292L206.514 150.712C205.828 150.062 204.938 149.669 203.995 149.601C203.052 149.534 202.115 149.795 201.343 150.342L201.193 150.448" stroke="black" stroke-width="0.589" stroke-linecap="round" stroke-linejoin="round"/>
<path d="M221.512 152.657L220.898 152.173C219.976 151.444 218.857 151.009 217.685 150.924C216.513 150.838 215.342 151.107 214.324 151.694" stroke="black" stroke-width="0.589" stroke-linecap="round" stroke-linejoin="round"/>
<path d="M217.403 155.436C217.483 154.59 217.051 153.857 216.439 153.799C215.827 153.741 215.266 154.38 215.186 155.226C215.106 156.072 215.537 156.805 216.149 156.863C216.761 156.921 217.323 156.282 217.403 155.436Z" fill="#231F20"/>
<path d="M204.78 154.241C204.86 153.395 204.428 152.662 203.816 152.604C203.204 152.546 202.643 153.185 202.563 154.031C202.483 154.877 202.914 155.61 203.526 155.668C204.138 155.726 204.7 155.087 204.78 154.241Z" fill="#231F20"/>
<path d="M204.853 156.779C205.065 156.797 205.263 156.894 205.408 157.05C205.554 157.206 205.636 157.41 205.639 157.624C205.642 157.837 205.567 158.044 205.426 158.204C205.286 158.365 205.091 158.467 204.88 158.493C204.817 158.501 204.754 158.501 204.691 158.493L201.178 158.151C200.968 158.132 200.772 158.035 200.628 157.88C200.484 157.726 200.402 157.523 200.399 157.311C200.395 157.1 200.469 156.895 200.607 156.735C200.745 156.575 200.938 156.471 201.148 156.444C201.213 156.436 201.28 156.436 201.346 156.444L204.853 156.779Z" fill="#F4DFE7"/>
<path d="M218.043 158.129C218.255 158.147 218.453 158.244 218.598 158.4C218.744 158.556 218.826 158.76 218.829 158.973C218.833 159.187 218.757 159.393 218.616 159.554C218.476 159.715 218.281 159.817 218.07 159.843C218.007 159.85 217.944 159.85 217.881 159.843L214.367 159.501C214.157 159.481 213.963 159.383 213.82 159.228C213.677 159.073 213.596 158.871 213.592 158.661C213.588 158.45 213.662 158.245 213.799 158.085C213.936 157.925 214.127 157.821 214.336 157.793C214.403 157.785 214.469 157.785 214.536 157.793L218.043 158.129Z" fill="#F4DFE7"/>
<path d="M222.363 126.511C225.697 126.826 228.873 128.081 231.522 130.13C234.17 132.179 236.183 134.938 237.326 138.086C238.468 141.234 238.693 144.641 237.975 147.912C237.257 151.183 235.624 154.183 233.268 156.562L233.245 156.533C233.138 156.269 232.97 156.035 232.754 155.849C233.222 154.303 233.544 152.717 233.715 151.111C234.044 147.635 233.326 144.141 231.653 141.077C229.98 138.013 227.429 135.519 224.327 133.916C221.226 132.314 217.716 131.676 214.248 132.084C210.781 132.492 207.516 133.928 204.871 136.207C206.469 133.016 208.994 130.382 212.116 128.651C215.237 126.921 218.809 126.175 222.363 126.511Z" fill="black"/>
<path d="M209.035 128.143C210.308 128.297 211.534 128.714 212.635 129.369C213.737 130.024 214.689 130.903 215.431 131.948C214.896 131.788 214.346 131.688 213.789 131.648C209.442 131.434 200.198 138.231 199.287 147.852C199.153 149.415 199.125 150.985 199.204 152.551C197.275 149.286 196.462 145.482 196.888 141.713C197.652 133.659 203.09 127.583 209.035 128.143Z" fill="black"/>
<path d="M219.216 124.483C228.942 125.404 239.234 136.063 238.313 145.79C238.245 146.51 238.134 147.225 237.979 147.931C237.31 148.268 234.534 154.876 233.2 155.434L229.516 154.457L225.862 155.831C226.727 153.487 227.051 150.979 226.811 148.493C226.283 145.813 225.433 143.207 224.279 140.732C223.972 140.042 223.473 139.455 222.842 139.041C222.211 138.627 221.474 138.403 220.719 138.396L218.826 138.377L206.479 129.315C209.81 126.937 214.822 124.067 219.216 124.483Z" fill="black"/>
<path d="M218.819 138.37L211.773 139.256C208.437 139.675 205.053 139.478 201.788 138.674C198.98 137.981 196.522 136.285 194.878 133.905C194.714 133.667 194.609 133.392 194.574 133.104C194.539 132.817 194.573 132.525 194.675 132.253C194.777 131.982 194.942 131.739 195.158 131.546C195.374 131.352 195.633 131.214 195.914 131.142L199.527 130.219C200.807 129.892 202.069 129.505 203.314 129.056L214.266 125.104L218.819 138.37Z" fill="black"/>
<path d="M177.854 220.66C179.42 221.252 180.962 221.901 182.48 222.607L209.643 235.215L208.105 244.983L170.43 233.218C169.194 232.891 168.131 232.103 167.459 231.016C166.787 229.928 166.557 228.625 166.817 227.373L167.085 226.447C168.002 223.211 169.197 220.061 170.659 217.031" fill="white"/>
<path d="M177.854 220.66C179.42 221.252 180.962 221.901 182.48 222.607L209.643 235.215L208.106 244.983L170.43 233.218C169.194 232.891 168.131 232.103 167.459 231.016C166.787 229.928 166.557 228.625 166.817 227.373L167.085 226.447C168.002 223.211 169.197 220.061 170.659 217.031V217.031" stroke="black" stroke-width="0.589" stroke-miterlimit="10"/>
<path d="M207.293 244.792L221.829 249.342C222.322 249.517 222.844 249.597 223.367 249.579C225.036 249.522 226.67 249.091 228.148 248.317L230.042 247.316C231.631 246.485 232.988 245.272 233.991 243.786C234.107 243.615 234.217 243.439 234.321 243.26L235.908 240.556C236.289 239.905 236.598 239.214 236.829 238.496L237.258 237.158C237.284 237.067 237.29 236.971 237.276 236.877C237.262 236.783 237.228 236.694 237.176 236.614C237.125 236.534 237.057 236.466 236.977 236.415C236.897 236.363 236.808 236.329 236.714 236.315L236.544 236.283C236.203 236.215 235.852 236.221 235.514 236.301C235.176 236.381 234.859 236.532 234.585 236.745L232.16 238.669C231.45 239.227 230.602 239.583 229.706 239.697L228.011 239.92C227.489 239.988 226.959 239.979 226.44 239.892L223.199 239.357C222.425 239.231 221.729 238.811 221.257 238.185C221.2 238.111 221.161 238.024 221.143 237.932C221.125 237.84 221.129 237.745 221.154 237.655C221.18 237.565 221.226 237.482 221.289 237.413C221.352 237.344 221.431 237.291 221.518 237.257H221.526C222.479 236.871 223.487 236.643 224.513 236.58L227.379 236.4C227.57 236.387 227.76 236.358 227.946 236.313L229.131 236.02C229.84 235.849 230.46 235.419 230.87 234.815L231.161 234.383C231.206 234.31 231.231 234.226 231.236 234.14C231.24 234.054 231.222 233.968 231.185 233.891C231.147 233.813 231.091 233.746 231.021 233.696C230.95 233.646 230.869 233.615 230.783 233.604L229.777 233.433C229.436 233.376 229.093 233.335 228.748 233.313L224.502 233.033C224.226 233.015 223.95 232.986 223.675 232.945L219.055 232.256C218.293 232.14 217.514 232.223 216.793 232.495L208.594 235.249" fill="white"/>
<path d="M207.293 244.792L221.829 249.342C222.322 249.517 222.844 249.597 223.367 249.579V249.579C225.036 249.522 226.67 249.091 228.148 248.317L230.042 247.316C231.631 246.485 232.988 245.272 233.991 243.786C234.107 243.615 234.217 243.439 234.321 243.26L235.908 240.556C236.289 239.905 236.598 239.214 236.829 238.496L237.258 237.158C237.284 237.067 237.29 236.971 237.276 236.877C237.262 236.783 237.228 236.694 237.176 236.614C237.125 236.534 237.057 236.466 236.977 236.415C236.897 236.363 236.808 236.329 236.714 236.315L236.544 236.283C236.203 236.215 235.852 236.221 235.514 236.301C235.176 236.381 234.859 236.532 234.585 236.745L232.16 238.669C231.45 239.227 230.602 239.583 229.706 239.697L228.011 239.92C227.489 239.988 226.959 239.979 226.44 239.892L223.199 239.357C222.425 239.231 221.729 238.811 221.257 238.185V238.185C221.2 238.111 221.161 238.024 221.143 237.932C221.125 237.84 221.129 237.745 221.154 237.655C221.18 237.565 221.226 237.482 221.289 237.413C221.352 237.344 221.431 237.291 221.518 237.257H221.526C222.479 236.871 223.487 236.643 224.513 236.58L227.379 236.4C227.57 236.387 227.76 236.358 227.946 236.313L229.131 236.02C229.84 235.849 230.46 235.419 230.87 234.815L231.161 234.383C231.206 234.31 231.231 234.226 231.236 234.14C231.24 234.054 231.222 233.968 231.185 233.891C231.147 233.813 231.091 233.746 231.021 233.696C230.95 233.646 230.869 233.615 230.783 233.604L229.777 233.433C229.436 233.376 229.093 233.335 228.748 233.313L224.502 233.033C224.226 233.015 223.95 232.986 223.675 232.945L219.055 232.256C218.293 232.14 217.514 232.223 216.793 232.495L208.594 235.249" stroke="black" stroke-width="0.589" stroke-linecap="round" stroke-linejoin="round"/>
<path d="M236.157 240.142L234.642 241.504C233.626 242.409 232.401 243.047 231.076 243.36L228.544 243.969C227.803 244.146 227.041 244.226 226.279 244.205L222.926 244.12" fill="white"/>
<path d="M236.157 240.142L234.642 241.504C233.626 242.409 232.401 243.047 231.076 243.36L228.544 243.969C227.803 244.146 227.041 244.226 226.279 244.205L222.926 244.12" stroke="black" stroke-width="0.589" stroke-linecap="round" stroke-linejoin="round"/>
<path d="M231.586 246.287C231.586 246.287 228.047 248.065 225.783 247.708C223.519 247.351 223.312 247.299 223.312 247.299" fill="white"/>
<path d="M231.586 246.287C231.586 246.287 228.047 248.065 225.783 247.708C223.519 247.351 223.312 247.299 223.312 247.299" stroke="black" stroke-width="0.589" stroke-linecap="round" stroke-linejoin="round"/>
<path d="M243.964 201.611H183.516V248.573H243.964V201.611Z" fill="white" stroke="black" stroke-width="0.589" stroke-linecap="round" stroke-linejoin="round"/>
<path d="M222.587 201.612H204.898V224.202H222.587V201.612Z" fill="#D11F40" stroke="black" stroke-width="0.589" stroke-miterlimit="10"/>
<path d="M243.967 248.573L256.7 244.631V203.584L243.967 201.611V248.573Z" fill="white" stroke="black" stroke-width="0.589" stroke-linecap="round" stroke-linejoin="round"/>
<path d="M300.5 252.205L139.929 252.205C138.793 252.205 137.704 251.754 136.901 250.951C136.098 250.148 135.647 249.059 135.647 247.923C135.647 246.788 136.098 245.698 136.901 244.895C137.704 244.092 138.793 243.641 139.929 243.641L300.5 243.641V252.205Z" fill="white" stroke="black" stroke-width="0.591" stroke-linecap="round" stroke-linejoin="round"/>
<path d="M140.461 255.165L300.5 255.165V252.205L140.461 252.205V255.165Z" fill="white" stroke="black" stroke-width="0.591" stroke-linecap="round" stroke-linejoin="round"/>
</svg>
